<svg width="30" height="31" viewBox="0 0 30 31" fill="none" xmlns="http://www.w3.org/2000/svg">
<path d="M30 15.4996C30 7.18493 23.2842 0.444458 15 0.444458C6.7158 0.444458 0 7.18493 0 15.4996C0 22.5598 4.8432 28.4843 11.3766 30.1114V20.1004H8.2836V15.4996H11.3766V13.5171C11.3766 8.39295 13.6872 6.01786 18.6996 6.01786C19.65 6.01786 21.2898 6.20514 21.9606 6.39183V10.5621C21.6066 10.5248 20.9916 10.5061 20.2278 10.5061C17.7684 10.5061 16.818 11.4413 16.818 13.8724V15.4996H21.7176L20.8758 20.1004H16.818V30.4445C24.2442 29.5442 30 23.1969 30 15.4996Z" fill="#0966FF"/>
</svg>
