<svg width="30" height="31" viewBox="0 0 30 31" fill="none" xmlns="http://www.w3.org/2000/svg">
<g clip-path="url(#clip0_1_184)">
<path d="M14.9998 12.7171V18.5262H23.0725C22.718 20.3944 21.6542 21.9763 20.0588 23.0399L24.9269 26.8172C27.7633 24.1991 29.3997 20.3536 29.3997 15.7855C29.3997 14.7218 29.3042 13.699 29.1269 12.7173L14.9998 12.7171Z" fill="#4285F4"/>
<path d="M6.59333 18.2995L5.49538 19.1399L1.60895 22.1672C4.07712 27.0626 9.13584 30.4444 14.9994 30.4444C19.0493 30.4444 22.4447 29.1081 24.9266 26.8172L20.0585 23.0399C18.7221 23.9399 17.0175 24.4854 14.9994 24.4854C11.0995 24.4854 7.78591 21.8536 6.59946 18.3081L6.59333 18.2995Z" fill="#34A853"/>
<path d="M1.60897 8.72174C0.586302 10.7398 0 13.0171 0 15.4444C0 17.8716 0.586302 20.1489 1.60897 22.167C1.60897 22.1806 6.59997 18.2943 6.59997 18.2943C6.29997 17.3943 6.12265 16.4398 6.12265 15.4442C6.12265 14.4486 6.29997 13.4941 6.59997 12.5942L1.60897 8.72174Z" fill="#FBBC05"/>
<path d="M14.9997 6.41718C17.2089 6.41718 19.1725 7.1808 20.7406 8.65354L25.0361 4.35814C22.4315 1.93091 19.0498 0.444458 14.9997 0.444458C9.13615 0.444458 4.07712 3.81263 1.60895 8.72174L6.59979 12.5945C7.78608 9.04898 11.0998 6.41718 14.9997 6.41718Z" fill="#EA4335"/>
</g>
<defs>
<clipPath id="clip0_1_184">
<rect width="30" height="30" fill="white" transform="translate(0 0.444458)"/>
</clipPath>
</defs>
</svg>
