<svg width="22" height="23" viewBox="0 0 22 23" fill="none" xmlns="http://www.w3.org/2000/svg">
<path d="M19 14.5928C20.3082 12.9242 21 11.4445 21 11.4445C21 11.4445 17.3636 3.66668 11 3.66668C10.6588 3.66668 10.3254 3.68904 10 3.73137C9.65778 3.77588 9.3244 3.84248 9 3.92836M11 8.11112C11.3506 8.11112 11.6872 8.17796 12 8.3008C12.8524 8.63556 13.528 9.38622 13.8293 10.3333C13.9398 10.6809 14 11.0549 14 11.4445M2 1.44446L20 21.4445M11 14.7778C10.6494 14.7778 10.3128 14.711 9.99999 14.5881C9.14758 14.2534 8.47198 13.5027 8.1707 12.5556C8.11386 12.3769 8.07034 12.1912 8.04147 12M3.14701 8.11112C2.83877 8.49391 2.56234 8.86936 2.31864 9.22224C1.45286 10.4758 1 11.4445 1 11.4445C1 11.4445 4.63636 19.2222 11 19.2222C11.3412 19.2222 11.6746 19.1999 12 19.1575" stroke="#5E9BAE" stroke-width="1.5" stroke-linecap="round" stroke-linejoin="round"/>
</svg>
