<svg width="625" height="688" viewBox="0 0 625 688" fill="none" xmlns="http://www.w3.org/2000/svg">
<g filter="url(#filter0_d_1_191)">
<path d="M620.89 642.505H4V642.995H620.89V642.505Z" fill="#EBEBEB"/>
<path d="M559.077 674.081H518.214V674.571H559.077V674.081Z" fill="#EBEBEB"/>
<path d="M412.652 679.418H401.931V679.909H412.652V679.418Z" fill="#EBEBEB"/>
<path d="M516.981 655.869H493.305V656.36H516.981V655.869Z" fill="#EBEBEB"/>
<path d="M122.011 659.166H68.724V659.657H122.011V659.166Z" fill="#EBEBEB"/>
<path d="M140.814 659.166H133.005V659.657H140.814V659.166Z" fill="#EBEBEB"/>
<path d="M281.785 667.447H166.205V667.938H281.785V667.447Z" fill="#EBEBEB"/>
<path d="M296.406 554.98H58.1752C56.3089 554.974 54.5202 553.792 53.2017 551.691C51.8832 549.59 51.1427 546.743 51.1427 543.774V11.1074C51.1589 8.15597 51.9066 5.33389 53.2234 3.25416C54.5401 1.17444 56.3196 0.00505602 58.1752 0H296.406C298.274 0 300.066 1.18058 301.387 3.28203C302.708 5.38349 303.451 8.23366 303.451 11.2056V543.774C303.451 546.746 302.708 549.596 301.387 551.698C300.066 553.799 298.274 554.98 296.406 554.98ZM58.1752 0.392491C56.3907 0.397689 54.6805 1.52887 53.4198 3.53775C52.1591 5.54663 51.4511 8.26906 51.4511 11.1074V543.774C51.4511 546.612 52.1591 549.335 53.4198 551.344C54.6805 553.353 56.3907 554.484 58.1752 554.489H296.406C298.191 554.484 299.903 553.353 301.166 551.345C302.428 549.337 303.139 546.614 303.142 543.774V11.1074C303.139 8.26725 302.428 5.54488 301.166 3.53656C299.903 1.52824 298.191 0.397678 296.406 0.392491H58.1752Z" fill="#EBEBEB"/>
<path d="M563.285 554.98H325.042C323.174 554.974 321.384 553.792 320.064 551.692C318.743 549.592 318 546.744 317.997 543.774V11.1074C318.016 8.15418 318.767 5.33212 320.085 3.25294C321.404 1.17376 323.185 0.00500088 325.042 0H563.285C565.138 0.0102135 566.914 1.18188 568.228 3.26105C569.543 5.34022 570.289 8.15936 570.305 11.1074V543.774C570.305 546.739 569.566 549.583 568.25 551.684C566.934 553.784 565.149 554.969 563.285 554.98ZM325.042 0.392491C323.256 0.397678 321.544 1.52824 320.282 3.53656C319.019 5.54488 318.308 8.26725 318.305 11.1074V543.774C318.308 546.614 319.019 549.337 320.282 551.345C321.544 553.353 323.256 554.484 325.042 554.489H563.285C565.07 554.484 566.782 553.353 568.044 551.345C569.307 549.337 570.018 546.614 570.021 543.774V11.1074C570.018 8.26725 569.307 5.54488 568.044 3.53656C566.782 1.52824 565.07 0.397678 563.285 0.392491H325.042Z" fill="#EBEBEB"/>
<path d="M302.994 233.296H127.822V641.818H302.994V233.296Z" fill="#F0F0F0"/>
<path d="M296.8 246.149H134.003V321.606H296.8V246.149Z" fill="#E0E0E0"/>
<path d="M143.256 258.356H134.003V321.586H143.256V258.356Z" fill="#EBEBEB"/>
<path d="M187.98 258.356H178.727V321.586H187.98V258.356Z" fill="#EBEBEB"/>
<path d="M238.741 256.768L229.622 259.268L236.374 321.579L245.493 319.079L238.741 256.768Z" fill="#EBEBEB"/>
<path d="M154.719 266.696H145.465V321.606H154.719V266.696Z" fill="#EBEBEB"/>
<path d="M175.977 266.696H166.723V321.606H175.977V266.696Z" fill="#EBEBEB"/>
<path d="M229.633 266.696H220.379V321.606H229.633V266.696Z" fill="#EBEBEB"/>
<path d="M200.135 264.791L191.102 267.984L198.592 321.586L207.625 318.393L200.135 264.791Z" fill="#EBEBEB"/>
<path d="M162.713 255.216H158.086V321.586H162.713V255.216Z" fill="#EBEBEB"/>
<path d="M217.716 255.216H213.089V321.586H217.716V255.216Z" fill="#EBEBEB"/>
<path d="M134.016 409.013L296.813 409.013V333.557H134.016V409.013Z" fill="#E0E0E0"/>
<path d="M287.547 408.993H296.8V345.763H287.547V408.993Z" fill="#EBEBEB"/>
<path d="M242.836 408.993H252.089V345.763H242.836V408.993Z" fill="#EBEBEB"/>
<path d="M185.325 406.481L194.444 408.981L201.196 346.67L192.077 344.17L185.325 406.481Z" fill="#EBEBEB"/>
<path d="M276.085 409.013H285.339V354.104H276.085V409.013Z" fill="#EBEBEB"/>
<path d="M254.839 409.013H264.093V354.104H254.839V409.013Z" fill="#EBEBEB"/>
<path d="M201.183 409.013H210.437V354.104H201.183V409.013Z" fill="#EBEBEB"/>
<path d="M223.222 405.805L232.255 408.998L239.744 355.397L230.711 352.204L223.222 405.805Z" fill="#EBEBEB"/>
<path d="M268.09 408.993H272.717V342.623H268.09V408.993Z" fill="#EBEBEB"/>
<path d="M213.1 408.993H217.727V342.623H213.1V408.993Z" fill="#EBEBEB"/>
<path d="M143.256 345.763H134.003V408.993H143.256V345.763Z" fill="#EBEBEB"/>
<path d="M154.719 354.084H145.465V408.993H154.719V354.084Z" fill="#EBEBEB"/>
<path d="M175.977 354.084H166.723V408.993H175.977V354.084Z" fill="#EBEBEB"/>
<path d="M162.713 342.623H158.086V408.993H162.713V342.623Z" fill="#EBEBEB"/>
<path d="M296.8 420.945H134.003V496.401H296.8V420.945Z" fill="#E0E0E0"/>
<path d="M236.703 433.151H227.449V496.381H236.703V433.151Z" fill="#EBEBEB"/>
<path d="M287.471 431.558L278.352 434.058L285.104 496.369L294.223 493.869L287.471 431.558Z" fill="#EBEBEB"/>
<path d="M203.44 441.491H194.187V496.401H203.44V441.491Z" fill="#EBEBEB"/>
<path d="M224.698 441.491H215.445V496.401H224.698V441.491Z" fill="#EBEBEB"/>
<path d="M278.355 441.491H269.102V496.401H278.355V441.491Z" fill="#EBEBEB"/>
<path d="M248.862 439.588L239.829 442.782L247.318 496.383L256.351 493.19L248.862 439.588Z" fill="#EBEBEB"/>
<path d="M211.435 430.011H206.808V496.381H211.435V430.011Z" fill="#EBEBEB"/>
<path d="M266.438 430.011H261.811V496.381H266.438V430.011Z" fill="#EBEBEB"/>
<path d="M181.073 431.573L171.955 434.073L178.707 496.384L187.826 493.884L181.073 431.573Z" fill="#EBEBEB"/>
<path d="M171.954 441.491H162.701V496.401H171.954V441.491Z" fill="#EBEBEB"/>
<path d="M142.465 439.588L133.432 442.781L140.922 496.383L149.955 493.19L142.465 439.588Z" fill="#EBEBEB"/>
<path d="M160.049 430.011H155.422V496.381H160.049V430.011Z" fill="#EBEBEB"/>
<path d="M97.5943 642.878H127.822L127.822 233.296H97.5943L97.5943 642.878Z" fill="#E0E0E0"/>
<path d="M405.521 632.182H379.846L393.344 457.25C393.668 453.595 394.797 450.241 396.53 447.787C398.263 445.332 400.487 443.936 402.807 443.846H514.785L498.363 632.104L405.521 632.182Z" fill="#F5F5F5"/>
<path d="M486.951 632.182H512.626L526.136 457.25C526.3 455.568 526.231 453.85 525.932 452.215C525.633 450.581 525.112 449.071 524.406 447.793C523.7 446.514 522.826 445.498 521.845 444.816C520.865 444.134 519.803 443.803 518.733 443.846H509.911C507.596 443.959 505.379 445.363 503.649 447.814C501.919 450.264 500.786 453.605 500.448 457.25L486.951 632.182Z" fill="#F0F0F0"/>
<path d="M477.5 631.908L482.151 547.326C482.249 545.491 482.74 543.765 483.542 542.437C484.343 541.108 485.407 540.257 486.556 540.026L488.468 539.633C490.012 539.326 491.442 538.183 492.518 536.396C493.594 534.609 494.251 532.287 494.378 529.821L495.229 514.396C495.313 512.901 495.2 511.394 494.898 509.972C494.596 508.549 494.111 507.243 493.473 506.135C492.836 505.028 492.061 504.143 491.197 503.538C490.333 502.933 489.4 502.621 488.456 502.622H531.367C532.31 502.621 533.244 502.933 534.108 503.538C534.972 504.143 535.747 505.028 536.384 506.135C537.021 507.243 537.507 508.549 537.809 509.972C538.111 511.394 538.224 512.901 538.14 514.396L537.289 529.821C537.162 532.287 536.505 534.609 535.429 536.396C534.353 538.183 532.923 539.326 531.379 539.633L529.467 540.026C528.319 540.261 527.256 541.113 526.455 542.441C525.654 543.769 525.162 545.493 525.062 547.326L520.411 631.908C520.244 634.88 519.385 637.646 518.001 639.661C516.618 641.677 514.81 642.796 512.934 642.799H470.023C471.899 642.796 473.707 641.677 475.09 639.661C476.474 637.646 477.333 634.88 477.5 631.908Z" fill="#E6E6E6"/>
<path d="M359.402 526.23C359.062 519.809 357.219 513.826 354.237 509.465C351.255 505.104 347.352 502.682 343.301 502.681H380.66C384.701 502.707 388.588 505.139 391.557 509.498C394.526 513.857 396.36 519.826 396.699 526.23L400.401 593.267H363.091L359.402 526.23Z" fill="#E6E6E6"/>
<path d="M326.707 502.759H343.289C347.34 502.761 351.243 505.182 354.225 509.543C357.207 513.905 359.05 519.888 359.39 526.308L363.092 593.346H452.072L455.773 526.308C456.11 519.903 457.944 513.931 460.913 509.571C463.882 505.212 467.771 502.781 471.812 502.759H488.407C489.351 502.759 490.284 503.071 491.148 503.676C492.012 504.281 492.787 505.165 493.424 506.273C494.061 507.38 494.547 508.687 494.849 510.109C495.151 511.531 495.264 513.038 495.18 514.534L494.329 529.959C494.202 532.425 493.545 534.747 492.469 536.533C491.393 538.32 489.963 539.463 488.419 539.771L486.507 540.163C485.358 540.395 484.294 541.246 483.493 542.574C482.691 543.903 482.2 545.629 482.102 547.464L477.5 631.908C477.334 634.88 476.474 637.646 475.091 639.661C473.707 641.677 471.899 642.796 470.023 642.799H345.14C343.264 642.796 341.456 641.677 340.073 639.661C338.689 637.646 337.83 634.88 337.663 631.908L333.012 547.326C332.91 545.494 332.417 543.772 331.616 542.445C330.816 541.117 329.754 540.264 328.607 540.026L326.695 539.633C325.151 539.323 323.72 538.18 322.643 536.394C321.565 534.608 320.905 532.288 320.773 529.821L319.934 514.396C319.863 512.912 319.985 511.42 320.293 510.014C320.601 508.608 321.088 507.319 321.724 506.226C322.36 505.134 323.131 504.262 323.988 503.665C324.846 503.069 325.771 502.76 326.707 502.759Z" fill="#F0F0F0"/>
<path d="M130.042 212.886C130.042 212.886 128.673 198.541 135.249 189.337C141.825 180.133 141.245 174.677 139.357 173.971C137.47 173.264 135.755 182.449 132.868 184.98C132.868 184.98 132.769 171.871 135.705 167.063C138.642 162.255 140.184 149.794 137.383 149.578C134.583 149.362 134.311 156.956 133.682 162.353C133.053 167.75 129.981 175.325 129.981 175.325C129.981 175.325 129.376 163.55 127.513 158.782C125.65 154.013 130.671 142.925 128.747 138.117C126.822 133.309 123.331 142.474 123.614 152.816C123.898 163.158 128.241 174.187 127.229 184.98C127.229 184.98 125.317 177.385 123.602 176.699C121.887 176.012 120.147 171.008 119 169.143C117.853 167.279 116.397 173.716 119 179.682C121.603 185.647 128.241 201.641 127.229 214.554L130.042 212.886Z" fill="#E6E6E6"/>
<path d="M133.966 206.351L136.125 227.84C136.28 229.4 136.221 230.995 135.951 232.515C135.682 234.036 135.208 235.445 134.563 236.646C133.918 237.847 133.117 238.812 132.216 239.473C131.314 240.135 130.333 240.478 129.34 240.478H127.045C126.052 240.478 125.07 240.135 124.169 239.473C123.267 238.812 122.466 237.847 121.821 236.646C121.176 235.445 120.702 234.036 120.433 232.515C120.163 230.995 120.104 229.4 120.259 227.84L122.443 206.351H133.966Z" fill="#E6E6E6"/>
<path d="M263.155 236.278H269.855V190.455H263.155V236.278Z" fill="#EBEBEB"/>
<path d="M230.756 236.278H237.455V190.455H230.756V236.278Z" fill="#EBEBEB"/>
<path d="M189.085 234.457L195.687 236.267L200.58 191.11L193.978 189.3L189.085 234.457Z" fill="#EBEBEB"/>
<path d="M254.853 236.259H261.552V196.48H254.853V236.259Z" fill="#EBEBEB"/>
<path d="M239.454 236.259H246.154V196.48H239.454V236.259Z" fill="#EBEBEB"/>
<path d="M200.566 236.259H207.266V196.48H200.566V236.259Z" fill="#EBEBEB"/>
<path d="M216.544 233.951L223.084 236.263L228.509 197.432L221.969 195.12L216.544 233.951Z" fill="#EBEBEB"/>
<path d="M249.053 236.278H252.409V188.179H249.053V236.278Z" fill="#EBEBEB"/>
<path d="M209.189 236.278H212.545V188.179H209.189V236.278Z" fill="#EBEBEB"/>
<path d="M185.304 199.895H152.646V235.749H185.304V199.895Z" fill="#EBEBEB"/>
<path d="M297.307 214.574H269.954V241.342H297.307V214.574Z" fill="#EBEBEB"/>
<path d="M290.916 191.044H277.233V217.812H290.916V191.044Z" fill="#EBEBEB"/>
<path d="M519.486 155.622H486.951V371.255H519.486V155.622Z" fill="#E0E0E0"/>
<path d="M394.319 371.844H515.994V155.642L394.319 155.642V371.844Z" fill="#E0E0E0"/>
<path d="M390.395 371.844H516.635V155.642L390.395 155.642V371.844Z" fill="#F0F0F0"/>
<path d="M395.8 361.895H511.454V162.51L395.8 162.51V361.895Z" fill="white"/>
<path d="M395.787 361.895H397.933V162.51H395.787V361.895Z" fill="#E0E0E0"/>
<path d="M397.588 305.906V311.283H511.762V305.906H397.588Z" fill="#E0E0E0"/>
<path d="M395.788 305.886H513.256V296.859H395.788V305.886Z" fill="#F0F0F0"/>
<path d="M312.217 362.43C444.333 362.43 551.435 352.484 551.435 340.215C551.435 327.946 444.333 318 312.217 318C180.101 318 72.9994 327.946 72.9994 340.215C72.9994 352.484 180.101 362.43 312.217 362.43Z" fill="#F5F5F5"/>
<path d="M422.766 119H202.03C197.043 119 192.999 125.431 192.999 133.365V546.774C192.999 554.708 197.043 561.139 202.03 561.139H422.766C427.754 561.139 431.797 554.708 431.797 546.774V133.365C431.797 125.431 427.754 119 422.766 119Z" fill="#206F7E"/>
<path opacity="0.6" d="M422.766 119H202.03C197.043 119 192.999 125.431 192.999 133.365V546.774C192.999 554.708 197.043 561.139 202.03 561.139H422.766C427.754 561.139 431.797 554.708 431.797 546.774V133.365C431.797 125.431 427.754 119 422.766 119Z" fill="white"/>
<path d="M393.118 321.779H231.691V365.738H393.118V321.779Z" fill="white"/>
<g opacity="0.4">
<path d="M246.125 348.037V349.195H240.523V336.596H245.952V337.734H241.362V342.228H245.458V343.347H241.362V348.037H246.125Z" fill="#263238"/>
<path d="M247.247 343.759H250.221V344.858H247.247V343.759Z" fill="#263238"/>
<path d="M261.831 343.7V349.195H261.029V343.818C261.029 341.855 260.4 340.796 259.326 340.796C259.048 340.775 258.77 340.851 258.512 341.019C258.255 341.187 258.023 341.443 257.834 341.768C257.645 342.093 257.502 342.481 257.417 342.902C257.332 343.324 257.305 343.77 257.34 344.21V349.195H256.526V343.818C256.526 341.855 255.896 340.796 254.811 340.796C254.532 340.775 254.255 340.851 253.997 341.019C253.739 341.187 253.507 341.443 253.318 341.768C253.129 342.093 252.987 342.481 252.901 342.902C252.816 343.324 252.79 343.77 252.824 344.21V349.195H252.01V339.716H252.787V341.443C253.02 340.865 253.344 340.393 253.728 340.076C254.111 339.76 254.54 339.608 254.971 339.638C255.407 339.579 255.844 339.736 256.221 340.087C256.599 340.439 256.899 340.967 257.081 341.6C257.327 340.968 257.676 340.452 258.09 340.107C258.505 339.762 258.97 339.6 259.437 339.638C259.772 339.597 260.109 339.677 260.422 339.87C260.735 340.064 261.016 340.367 261.246 340.757C261.476 341.146 261.647 341.613 261.749 342.123C261.85 342.632 261.878 343.171 261.831 343.7Z" fill="#263238"/>
<path d="M268.518 343.307V349.195H267.74V347.703C267.52 348.234 267.213 348.66 266.852 348.937C266.492 349.213 266.091 349.329 265.692 349.273C264.347 349.273 263.521 348.155 263.521 346.526C263.521 344.897 264.113 343.837 265.816 343.837H267.703V343.268C267.703 341.639 267.136 340.756 266.025 340.756C265.301 340.743 264.597 341.14 264.039 341.875L263.681 340.933C264.378 340.041 265.255 339.581 266.149 339.638C266.464 339.577 266.783 339.629 267.084 339.79C267.384 339.952 267.658 340.218 267.886 340.57C268.113 340.922 268.288 341.351 268.397 341.825C268.506 342.298 268.548 342.805 268.518 343.307ZM267.703 346.349V344.799H265.84C264.693 344.799 264.31 345.505 264.31 346.487C264.31 347.468 264.866 348.272 265.816 348.272C266.218 348.315 266.619 348.151 266.958 347.805C267.298 347.459 267.559 346.949 267.703 346.349Z" fill="#263238"/>
<path d="M270.516 336.733C270.518 336.612 270.534 336.493 270.565 336.382C270.596 336.271 270.64 336.171 270.695 336.087C270.75 336.003 270.815 335.937 270.886 335.893C270.957 335.849 271.032 335.828 271.108 335.831C271.183 335.828 271.257 335.849 271.327 335.892C271.396 335.935 271.46 335.999 271.513 336.081C271.567 336.163 271.61 336.261 271.64 336.37C271.67 336.478 271.687 336.595 271.688 336.714C271.69 336.836 271.676 336.958 271.648 337.073C271.619 337.187 271.577 337.291 271.523 337.379C271.469 337.466 271.404 337.536 271.333 337.584C271.262 337.631 271.186 337.656 271.108 337.656C271.031 337.658 270.955 337.636 270.883 337.591C270.811 337.546 270.746 337.478 270.69 337.393C270.635 337.307 270.591 337.204 270.562 337.091C270.532 336.978 270.516 336.856 270.516 336.733ZM270.701 339.716H271.503V349.195H270.701V339.716Z" fill="#263238"/>
<path d="M273.737 335.831H274.538V349.195H273.737V335.831Z" fill="#263238"/>
</g>
<path d="M393.118 381.83H231.691V425.789H393.118V381.83Z" fill="white"/>
<g opacity="0.4">
<path d="M246.717 401.023C246.717 403.712 245.483 405.34 243.484 405.34H241.362V409.265H240.523V396.666H243.484C245.495 396.706 246.717 398.334 246.717 401.023ZM245.878 401.023C245.878 399.061 245.051 397.863 243.41 397.863H241.313V404.163H243.41C245.051 404.163 245.878 403.005 245.878 401.023Z" fill="#263238"/>
<path d="M252.799 403.437V409.324H252.022V407.833C251.801 408.364 251.494 408.79 251.134 409.066C250.773 409.342 250.373 409.459 249.974 409.403C248.629 409.403 247.802 408.284 247.802 406.636C247.802 404.987 248.395 403.908 250.097 403.908H251.985V403.319C251.985 401.71 251.405 400.827 250.295 400.827C249.574 400.812 248.873 401.208 248.321 401.945L247.95 400.984C248.653 400.111 249.527 399.66 250.418 399.708C250.737 399.642 251.062 399.693 251.367 399.856C251.672 400.019 251.95 400.291 252.179 400.65C252.409 401.009 252.584 401.447 252.691 401.93C252.799 402.413 252.836 402.928 252.799 403.437ZM251.997 406.459V404.909H250.097C248.95 404.909 248.58 405.635 248.58 406.616C248.58 407.597 249.123 408.382 250.085 408.382C250.491 408.43 250.896 408.269 251.241 407.923C251.585 407.576 251.85 407.063 251.997 406.459Z" fill="#263238"/>
<path d="M254.156 408.225L254.514 407.224C255.137 407.915 255.877 408.285 256.636 408.284C257.759 408.284 258.228 407.676 258.228 406.734C258.228 404.261 254.366 406.204 254.366 402.475C254.366 400.925 255.205 399.767 256.723 399.767C257.463 399.756 258.191 400.061 258.833 400.65L258.475 401.671C257.956 401.125 257.345 400.845 256.723 400.866C255.649 400.866 255.168 401.533 255.168 402.436C255.168 404.987 259.03 403.064 259.03 406.694C259.03 408.343 258.129 409.403 256.562 409.403C255.701 409.438 254.856 409.025 254.156 408.225Z" fill="#263238"/>
<path d="M259.684 408.225L260.054 407.224C260.669 407.923 261.408 408.294 262.164 408.284C263.299 408.284 263.756 407.676 263.756 406.734C263.756 404.261 259.906 406.204 259.906 402.475C259.906 400.925 260.745 399.767 262.25 399.767C262.991 399.752 263.72 400.057 264.36 400.65L264.015 401.671C263.491 401.127 262.876 400.847 262.25 400.866C261.177 400.866 260.708 401.533 260.708 402.436C260.708 404.987 264.57 403.064 264.57 406.695C264.57 408.343 263.657 409.403 262.102 409.403C261.237 409.435 260.389 409.022 259.684 408.225Z" fill="#263238"/>
<path d="M274.662 399.846L272.417 409.305H271.664L269.838 401.553L267.963 409.305H267.21L264.903 399.846H265.668L267.543 407.892L269.456 399.846H270.147L272.047 407.892L273.934 399.846H274.662Z" fill="#263238"/>
<path d="M275.106 404.575C275.106 403.62 275.284 402.687 275.617 401.893C275.951 401.099 276.425 400.48 276.979 400.115C277.534 399.749 278.144 399.654 278.733 399.84C279.322 400.026 279.863 400.486 280.287 401.161C280.712 401.837 281.001 402.697 281.118 403.633C281.235 404.57 281.175 405.54 280.945 406.422C280.715 407.305 280.326 408.059 279.827 408.589C279.328 409.119 278.741 409.403 278.141 409.403C277.739 409.424 277.338 409.315 276.963 409.08C276.589 408.845 276.249 408.49 275.964 408.037C275.68 407.585 275.457 407.044 275.309 406.448C275.161 405.852 275.092 405.215 275.106 404.575ZM280.349 404.575C280.33 403.883 280.183 403.215 279.927 402.655C279.671 402.095 279.317 401.667 278.909 401.424C278.502 401.181 278.058 401.134 277.633 401.289C277.209 401.444 276.823 401.795 276.522 402.296C276.222 402.798 276.021 403.429 275.945 404.111C275.868 404.793 275.919 405.495 276.092 406.131C276.264 406.767 276.55 407.308 276.915 407.688C277.279 408.067 277.706 408.268 278.141 408.264C278.442 408.274 278.741 408.183 279.019 407.999C279.297 407.814 279.548 407.54 279.756 407.193C279.963 406.846 280.123 406.434 280.226 405.983C280.328 405.533 280.37 405.053 280.349 404.575Z" fill="#263238"/>
<path d="M285.803 399.767V401.003H285.606C285.324 400.982 285.042 401.06 284.781 401.231C284.519 401.402 284.285 401.663 284.094 401.994C283.903 402.326 283.761 402.72 283.677 403.149C283.592 403.578 283.569 404.032 283.607 404.477V409.304H282.805V399.845H283.57V401.69C283.778 401.05 284.102 400.525 284.501 400.182C284.899 399.839 285.353 399.694 285.803 399.767Z" fill="#263238"/>
<path d="M292.626 396.058V409.403H291.861V407.538C291.622 408.159 291.283 408.667 290.88 409.012C290.477 409.356 290.024 409.525 289.566 409.501C288.797 409.423 288.074 408.881 287.546 407.986C287.019 407.091 286.725 405.91 286.725 404.683C286.725 403.456 287.019 402.275 287.546 401.38C288.074 400.485 288.797 399.943 289.566 399.865C290.018 399.849 290.464 400.022 290.86 400.366C291.256 400.711 291.589 401.215 291.824 401.828V396.058H292.626ZM291.837 404.673C291.817 403.981 291.67 403.314 291.414 402.753C291.158 402.193 290.804 401.765 290.397 401.522C289.989 401.279 289.545 401.232 289.121 401.387C288.696 401.543 288.31 401.893 288.01 402.394C287.709 402.896 287.508 403.527 287.432 404.209C287.355 404.891 287.406 405.593 287.579 406.229C287.751 406.865 288.037 407.407 288.402 407.786C288.766 408.165 289.193 408.366 289.628 408.363C289.935 408.373 290.24 408.28 290.522 408.09C290.805 407.899 291.059 407.616 291.267 407.258C291.476 406.9 291.635 406.476 291.733 406.014C291.831 405.551 291.866 405.061 291.837 404.575V404.673Z" fill="#263238"/>
</g>
<path opacity="0.2" d="M393.118 470.631H231.691V514.59H393.118V470.631Z" fill="black"/>
<g opacity="0.5">
<path d="M270.949 450.437H268.309L267.741 452.4H267.223L269.382 444.884H269.876L272.035 452.4H271.517L270.949 450.437ZM270.764 449.79L269.629 445.747L268.494 449.79H270.764Z" fill="black"/>
<path d="M272.726 444.472H273.207V452.439H272.726V444.472Z" fill="black"/>
<path d="M276.341 446.748V447.494H276.217C276.045 447.47 275.872 447.509 275.71 447.607C275.549 447.705 275.403 447.86 275.284 448.06C275.166 448.26 275.077 448.5 275.025 448.762C274.973 449.024 274.959 449.302 274.983 449.574V452.459H274.502V446.807H274.971V447.906C275.095 447.51 275.293 447.185 275.539 446.977C275.785 446.77 276.065 446.689 276.341 446.748Z" fill="black"/>
<path d="M280.265 449.849H277.242C277.251 450.124 277.295 450.393 277.37 450.641C277.446 450.889 277.551 451.111 277.681 451.294C277.811 451.476 277.962 451.616 278.126 451.705C278.29 451.794 278.463 451.83 278.636 451.811C278.841 451.822 279.045 451.763 279.235 451.638C279.424 451.513 279.595 451.324 279.734 451.085L279.993 451.576C279.738 452.002 279.41 452.298 279.049 452.428C278.689 452.558 278.312 452.515 277.966 452.306C277.621 452.096 277.322 451.728 277.108 451.249C276.893 450.77 276.773 450.201 276.761 449.613C276.749 449.24 276.785 448.868 276.868 448.518C276.95 448.168 277.077 447.849 277.24 447.581C277.403 447.312 277.599 447.1 277.816 446.956C278.033 446.813 278.266 446.742 278.5 446.748C278.735 446.739 278.968 446.808 279.186 446.95C279.403 447.093 279.599 447.306 279.761 447.575C279.924 447.845 280.049 448.165 280.129 448.516C280.21 448.867 280.243 449.241 280.228 449.613C280.228 449.613 280.265 449.77 280.265 449.849ZM277.291 449.28H279.759C279.759 448.759 279.629 448.26 279.398 447.892C279.166 447.524 278.852 447.317 278.525 447.317C278.198 447.317 277.884 447.524 277.653 447.892C277.421 448.26 277.291 448.759 277.291 449.28Z" fill="black"/>
<path d="M283.831 449.044V452.537H283.411V451.654C283.28 451.977 283.096 452.236 282.878 452.402C282.66 452.569 282.418 452.636 282.177 452.596C281.375 452.596 280.944 451.929 280.944 450.948C280.944 449.966 281.289 449.338 282.313 449.338H283.411V449.005C283.411 448.043 283.066 447.513 282.4 447.513C281.951 447.487 281.511 447.724 281.166 448.181L280.956 447.611C281.365 447.092 281.877 446.821 282.4 446.846C282.59 446.794 282.786 446.814 282.972 446.905C283.157 446.996 283.326 447.155 283.465 447.369C283.604 447.583 283.71 447.846 283.774 448.137C283.837 448.428 283.857 448.739 283.831 449.044ZM283.362 450.85V449.908H282.239C281.548 449.908 281.326 450.339 281.326 450.928C281.326 451.517 281.659 451.988 282.227 451.988C282.482 452.019 282.737 451.914 282.951 451.691C283.166 451.467 283.327 451.137 283.411 450.751L283.362 450.85Z" fill="black"/>
<path d="M288.346 444.472V452.439H287.889V451.321C287.749 451.695 287.548 452.003 287.307 452.21C287.065 452.417 286.794 452.517 286.52 452.498C286.066 452.438 285.643 452.11 285.335 451.577C285.027 451.044 284.855 450.347 284.855 449.623C284.855 448.899 285.027 448.202 285.335 447.669C285.643 447.136 286.066 446.808 286.52 446.748C286.787 446.737 287.052 446.833 287.289 447.029C287.526 447.224 287.729 447.513 287.877 447.867V444.472H288.346ZM287.877 449.613C287.865 449.203 287.777 448.807 287.625 448.475C287.473 448.142 287.263 447.889 287.021 447.745C286.779 447.601 286.515 447.573 286.263 447.665C286.012 447.756 285.782 447.964 285.604 448.261C285.425 448.558 285.305 448.932 285.259 449.336C285.213 449.741 285.243 450.158 285.344 450.536C285.446 450.914 285.615 451.236 285.83 451.463C286.046 451.69 286.298 451.811 286.557 451.811C286.74 451.829 286.924 451.783 287.096 451.679C287.268 451.574 287.424 451.413 287.554 451.205C287.683 450.997 287.784 450.747 287.848 450.473C287.912 450.198 287.939 449.905 287.926 449.613H287.877Z" fill="black"/>
<path d="M292.725 446.787L290.949 453.126C290.653 454.225 290.27 454.578 289.715 454.578C289.396 454.592 289.087 454.409 288.851 454.068L289.073 453.499C289.247 453.775 289.482 453.93 289.727 453.931C290.048 453.931 290.258 453.695 290.467 452.969L290.616 452.439L289.024 446.787H289.579L290.924 451.595L292.256 446.787H292.725Z" fill="black"/>
<path d="M297.858 449.044V452.537H297.401V451.654C297.27 451.977 297.086 452.236 296.868 452.402C296.65 452.569 296.408 452.636 296.168 452.596C295.366 452.596 294.934 451.929 294.934 450.948C294.934 449.966 295.279 449.338 296.303 449.338H297.426V449.005C297.426 448.043 297.093 447.513 296.427 447.513C295.978 447.487 295.539 447.724 295.193 448.181L294.971 447.611C295.385 447.093 295.9 446.822 296.427 446.846C296.618 446.794 296.814 446.814 296.999 446.905C297.184 446.996 297.353 447.155 297.492 447.369C297.632 447.583 297.737 447.846 297.801 448.137C297.864 448.428 297.884 448.739 297.858 449.044ZM297.377 450.85V449.908H296.266C295.575 449.908 295.353 450.339 295.353 450.928C295.353 451.517 295.686 451.988 296.254 451.988C296.5 452.003 296.743 451.891 296.945 451.668C297.148 451.445 297.299 451.123 297.377 450.751V450.85Z" fill="black"/>
<path d="M306.853 449.162V452.439H306.384V449.241C306.384 448.043 306.001 447.435 305.36 447.435C305.194 447.414 305.028 447.451 304.873 447.542C304.717 447.634 304.576 447.777 304.459 447.964C304.341 448.151 304.251 448.375 304.193 448.623C304.136 448.87 304.113 449.135 304.126 449.397V452.361H303.657V449.241C303.657 448.043 303.275 447.435 302.621 447.435C302.455 447.414 302.289 447.451 302.134 447.542C301.978 447.634 301.837 447.777 301.72 447.964C301.602 448.151 301.512 448.375 301.454 448.623C301.397 448.87 301.374 449.135 301.387 449.397V452.361H300.906V446.709H301.362V447.749C301.498 447.397 301.692 447.111 301.922 446.921C302.153 446.731 302.411 446.644 302.67 446.67C302.929 446.638 303.187 446.736 303.409 446.951C303.63 447.166 303.803 447.486 303.904 447.867C304.047 447.482 304.254 447.168 304.502 446.957C304.75 446.746 305.03 446.646 305.31 446.67C305.524 446.609 305.743 446.632 305.949 446.737C306.155 446.841 306.343 447.024 306.494 447.269C306.646 447.515 306.758 447.815 306.821 448.145C306.883 448.475 306.894 448.824 306.853 449.162Z" fill="black"/>
<path d="M311.22 449.849H308.247C308.272 450.404 308.434 450.921 308.697 451.289C308.96 451.656 309.304 451.844 309.653 451.811C309.857 451.823 310.059 451.765 310.247 451.639C310.434 451.514 310.602 451.325 310.739 451.085L311.011 451.576C310.837 451.877 310.625 452.115 310.389 452.274C310.153 452.433 309.898 452.509 309.641 452.498C309.397 452.523 309.151 452.466 308.922 452.331C308.692 452.196 308.482 451.986 308.307 451.714C308.131 451.442 307.993 451.114 307.902 450.753C307.811 450.391 307.769 450.003 307.778 449.613C307.778 448.885 307.96 448.186 308.284 447.67C308.608 447.155 309.047 446.866 309.505 446.866C309.963 446.866 310.403 447.155 310.727 447.67C311.051 448.186 311.233 448.885 311.233 449.613C311.233 449.613 311.22 449.77 311.22 449.849ZM308.247 449.28H310.776C310.776 448.746 310.643 448.234 310.406 447.857C310.169 447.48 309.847 447.268 309.511 447.268C309.176 447.268 308.854 447.48 308.617 447.857C308.38 448.234 308.247 448.746 308.247 449.28Z" fill="black"/>
<path d="M318.08 449.162V452.439H317.599V449.241C317.599 448.043 317.229 447.435 316.587 447.435C316.421 447.411 316.254 447.445 316.097 447.535C315.941 447.625 315.799 447.769 315.681 447.956C315.563 448.144 315.473 448.37 315.416 448.619C315.359 448.868 315.338 449.134 315.353 449.397V452.361H314.872V449.241C314.872 448.043 314.502 447.435 313.848 447.435C313.682 447.411 313.515 447.445 313.358 447.535C313.202 447.625 313.06 447.769 312.942 447.956C312.824 448.144 312.734 448.37 312.677 448.619C312.621 448.868 312.599 449.134 312.614 449.397V452.361H312.133V446.709H312.59V447.749C312.724 447.396 312.918 447.109 313.148 446.918C313.379 446.728 313.638 446.642 313.897 446.67C314.156 446.638 314.414 446.736 314.636 446.951C314.857 447.166 315.031 447.486 315.131 447.867C315.275 447.482 315.482 447.168 315.729 446.957C315.977 446.746 316.257 446.646 316.538 446.67C316.751 446.609 316.97 446.632 317.176 446.737C317.383 446.841 317.57 447.024 317.722 447.269C317.874 447.515 317.986 447.815 318.048 448.145C318.11 448.475 318.121 448.824 318.08 449.162Z" fill="black"/>
<path d="M322.99 449.613C323.002 449.99 322.964 450.367 322.881 450.721C322.797 451.074 322.668 451.396 322.503 451.667C322.337 451.938 322.138 452.151 321.918 452.294C321.699 452.437 321.463 452.507 321.225 452.498C320.951 452.517 320.68 452.417 320.438 452.21C320.197 452.003 319.996 451.695 319.856 451.321V452.439H319.387V444.472H319.868V447.867C320.016 447.511 320.218 447.222 320.455 447.026C320.693 446.83 320.958 446.735 321.225 446.748C321.462 446.737 321.698 446.804 321.918 446.944C322.137 447.085 322.336 447.297 322.502 447.566C322.668 447.835 322.797 448.156 322.881 448.508C322.965 448.861 323.002 449.237 322.99 449.613ZM322.508 449.613C322.496 449.203 322.409 448.807 322.257 448.475C322.104 448.142 321.894 447.889 321.652 447.745C321.41 447.601 321.147 447.573 320.895 447.665C320.643 447.756 320.414 447.964 320.235 448.261C320.057 448.558 319.937 448.932 319.891 449.336C319.845 449.741 319.874 450.158 319.976 450.536C320.077 450.914 320.246 451.236 320.462 451.463C320.677 451.69 320.93 451.811 321.188 451.811C321.368 451.817 321.547 451.764 321.713 451.654C321.879 451.545 322.028 451.381 322.153 451.174C322.277 450.968 322.373 450.722 322.434 450.453C322.495 450.185 322.52 449.898 322.508 449.613Z" fill="black"/>
<path d="M327.074 449.849H324.126C324.135 450.124 324.179 450.393 324.254 450.641C324.33 450.889 324.435 451.111 324.565 451.294C324.695 451.476 324.846 451.616 325.01 451.705C325.174 451.794 325.347 451.83 325.52 451.811C325.725 451.811 325.927 451.739 326.113 451.6C326.299 451.461 326.463 451.258 326.593 451.007L326.865 451.497C326.61 451.923 326.281 452.22 325.921 452.35C325.56 452.479 325.183 452.437 324.838 452.227C324.492 452.017 324.194 451.65 323.979 451.171C323.765 450.692 323.644 450.123 323.632 449.535C323.62 449.162 323.657 448.789 323.739 448.439C323.822 448.09 323.948 447.771 324.111 447.502C324.274 447.234 324.47 447.021 324.687 446.878C324.904 446.735 325.137 446.664 325.372 446.67C325.606 446.66 325.839 446.729 326.055 446.872C326.272 447.014 326.467 447.228 326.629 447.497C326.79 447.767 326.914 448.088 326.993 448.439C327.072 448.79 327.104 449.163 327.087 449.535L327.074 449.849ZM324.101 449.28H326.569C326.569 448.759 326.439 448.26 326.207 447.892C325.976 447.524 325.662 447.317 325.335 447.317C325.008 447.317 324.694 447.524 324.462 447.892C324.231 448.26 324.101 448.759 324.101 449.28Z" fill="black"/>
<path d="M329.85 446.748V447.494H329.739C329.567 447.47 329.394 447.509 329.232 447.607C329.07 447.705 328.925 447.86 328.806 448.06C328.688 448.26 328.599 448.5 328.547 448.762C328.495 449.024 328.481 449.302 328.505 449.574V452.459H328.024V446.807H328.481V447.906C328.606 447.512 328.805 447.189 329.05 446.981C329.295 446.774 329.575 446.692 329.85 446.748Z" fill="black"/>
<path d="M332.959 446.846C332.959 446.061 332.564 445.531 331.873 445.531C331.63 445.51 331.387 445.576 331.163 445.726C330.939 445.875 330.738 446.104 330.578 446.395L330.22 445.963C330.43 445.586 330.692 445.289 330.984 445.095C331.277 444.901 331.594 444.816 331.91 444.844C332.86 444.844 333.465 445.571 333.465 446.807C333.465 448.632 332.231 448.769 332.231 450.261H331.725C331.725 448.416 332.959 448.24 332.959 446.846ZM331.627 451.929C331.642 451.799 331.686 451.681 331.75 451.596C331.814 451.511 331.895 451.465 331.978 451.465C332.062 451.465 332.142 451.511 332.207 451.596C332.271 451.681 332.314 451.799 332.33 451.929C332.34 452.011 332.338 452.096 332.325 452.177C332.311 452.258 332.287 452.333 332.254 452.397C332.22 452.462 332.178 452.514 332.13 452.549C332.083 452.585 332.031 452.603 331.978 452.603C331.926 452.603 331.874 452.585 331.826 452.549C331.778 452.514 331.736 452.462 331.703 452.397C331.669 452.333 331.645 452.258 331.632 452.177C331.619 452.096 331.617 452.011 331.627 451.929Z" fill="black"/>
<path d="M336.303 444.923H337.401V451.007H339.77V452.42H336.303V444.923Z" fill="black"/>
<path d="M340.017 449.554C339.992 448.919 340.088 448.286 340.292 447.738C340.496 447.19 340.799 446.752 341.161 446.481C341.524 446.21 341.929 446.118 342.324 446.218C342.72 446.318 343.087 446.604 343.379 447.04C343.671 447.475 343.874 448.041 343.962 448.662C344.05 449.284 344.018 449.933 343.871 450.525C343.724 451.117 343.469 451.626 343.138 451.985C342.807 452.344 342.416 452.536 342.016 452.537C341.759 452.564 341.502 452.507 341.26 452.369C341.018 452.231 340.796 452.016 340.609 451.736C340.422 451.456 340.272 451.118 340.17 450.743C340.069 450.368 340.016 449.963 340.017 449.554ZM342.941 449.554C342.927 449.269 342.86 448.997 342.75 448.771C342.64 448.545 342.491 448.375 342.321 448.281C342.152 448.188 341.968 448.175 341.794 448.244C341.62 448.314 341.462 448.462 341.34 448.672C341.217 448.882 341.136 449.144 341.106 449.426C341.076 449.707 341.098 449.997 341.17 450.259C341.242 450.521 341.36 450.745 341.51 450.902C341.66 451.059 341.836 451.143 342.016 451.144C342.144 451.148 342.272 451.108 342.39 451.028C342.508 450.948 342.615 450.829 342.702 450.679C342.789 450.529 342.856 450.351 342.897 450.157C342.938 449.963 342.953 449.758 342.941 449.554Z" fill="black"/>
<path d="M348.468 446.65V451.478C348.501 451.911 348.472 452.352 348.38 452.764C348.289 453.176 348.139 453.549 347.941 453.854C347.744 454.158 347.505 454.385 347.243 454.518C346.981 454.65 346.703 454.685 346.432 454.617C345.797 454.656 345.171 454.375 344.643 453.813L345.062 452.616C345.423 453.026 345.853 453.252 346.296 453.263C347.036 453.263 347.37 452.734 347.37 451.693V451.438C347.222 451.683 347.043 451.874 346.845 451.999C346.647 452.124 346.435 452.181 346.222 452.164C345.979 452.197 345.734 452.149 345.503 452.023C345.272 451.897 345.06 451.696 344.88 451.434C344.701 451.171 344.557 450.851 344.459 450.496C344.361 450.14 344.31 449.756 344.31 449.368C344.31 448.98 344.361 448.596 344.459 448.24C344.557 447.884 344.701 447.565 344.88 447.302C345.06 447.04 345.272 446.839 345.503 446.713C345.734 446.587 345.979 446.539 346.222 446.571C346.454 446.542 346.687 446.601 346.902 446.745C347.117 446.888 347.307 447.111 347.456 447.396V446.65H348.468ZM347.431 449.378C347.435 449.181 347.413 448.985 347.366 448.804C347.319 448.622 347.248 448.458 347.158 448.322C347.069 448.187 346.962 448.083 346.845 448.018C346.729 447.953 346.604 447.928 346.481 447.945C346.355 447.922 346.227 447.941 346.106 448.001C345.984 448.062 345.873 448.163 345.778 448.297C345.683 448.432 345.606 448.597 345.554 448.781C345.502 448.966 345.475 449.166 345.475 449.368C345.475 449.57 345.502 449.77 345.554 449.955C345.606 450.139 345.683 450.304 345.778 450.438C345.873 450.573 345.984 450.674 346.106 450.734C346.227 450.795 346.355 450.814 346.481 450.791C346.603 450.807 346.726 450.783 346.842 450.719C346.958 450.655 347.064 450.553 347.154 450.42C347.243 450.287 347.314 450.125 347.362 449.946C347.41 449.766 347.433 449.573 347.431 449.378Z" fill="black"/>
<path d="M351.268 444.923C351.269 444.791 351.288 444.662 351.322 444.542C351.356 444.422 351.405 444.315 351.467 444.227C351.528 444.138 351.6 444.071 351.678 444.029C351.757 443.986 351.839 443.97 351.922 443.981C352.003 443.967 352.084 443.98 352.162 444.019C352.239 444.058 352.311 444.122 352.372 444.206C352.433 444.291 352.483 444.395 352.518 444.511C352.553 444.628 352.573 444.755 352.576 444.884C352.576 445.16 352.507 445.424 352.384 445.619C352.262 445.814 352.095 445.924 351.922 445.924C351.748 445.924 351.582 445.814 351.46 445.619C351.337 445.424 351.268 445.16 351.268 444.884V444.923ZM351.391 446.65H352.44V452.537H351.391V446.65Z" fill="black"/>
<path d="M357.117 449.044V452.361H356.068V449.319C356.068 448.377 355.797 447.945 355.328 447.945C354.859 447.945 354.452 448.436 354.452 449.496V452.361H353.403V446.473H354.415V447.16C354.574 446.899 354.767 446.696 354.979 446.564C355.192 446.432 355.421 446.374 355.649 446.395C355.862 446.378 356.075 446.437 356.271 446.569C356.468 446.701 356.643 446.902 356.784 447.157C356.925 447.411 357.029 447.713 357.086 448.04C357.144 448.367 357.154 448.71 357.117 449.044Z" fill="black"/>
</g>
<path d="M393.118 467.943H231.691V511.901H393.118V467.943Z" fill="#206F7E"/>
<path d="M291.553 496.751L289.579 492.218H288.987H286.642V496.79H285.285V481.738H288.987C291.454 481.738 292.922 483.701 292.922 486.998C292.954 488.042 292.767 489.073 292.393 489.932C292.018 490.79 291.475 491.429 290.85 491.747L293.095 496.79L291.553 496.751ZM291.553 486.939C291.553 484.78 290.652 483.564 288.912 483.564H286.618V490.334H288.912C290.615 490.354 291.516 489.098 291.516 486.959L291.553 486.939Z" fill="white"/>
<path d="M301.325 491.747H295.513C295.605 492.718 295.922 493.599 296.401 494.216C296.881 494.834 297.489 495.143 298.104 495.083C298.492 495.105 298.877 494.994 299.235 494.757C299.593 494.52 299.914 494.162 300.177 493.709L300.893 495.044C300.365 495.896 299.693 496.488 298.959 496.749C298.225 497.01 297.459 496.928 296.753 496.514C296.047 496.099 295.431 495.37 294.98 494.413C294.528 493.456 294.259 492.313 294.206 491.119C294.18 490.348 294.255 489.578 294.425 488.855C294.596 488.133 294.859 487.475 295.197 486.922C295.536 486.369 295.942 485.933 296.392 485.642C296.841 485.351 297.323 485.212 297.808 485.232C298.291 485.21 298.771 485.35 299.217 485.642C299.663 485.934 300.066 486.371 300.4 486.926C300.733 487.481 300.99 488.14 301.154 488.862C301.317 489.585 301.384 490.353 301.349 491.119C301.349 491.296 301.337 491.551 301.325 491.747ZM295.513 490.255H300.103C300.044 489.353 299.777 488.517 299.353 487.909C298.929 487.301 298.379 486.965 297.808 486.965C297.238 486.965 296.687 487.301 296.263 487.909C295.84 488.517 295.572 489.353 295.513 490.255Z" fill="white"/>
<path d="M310.011 485.369V495.181C310.011 499.204 308.715 501.069 306.309 501.069C305.082 501.153 303.874 500.556 302.892 499.381L303.509 497.791C304.298 498.766 305.273 499.286 306.272 499.263C307.963 499.263 308.74 498.027 308.74 495.436V494.534C308.421 495.116 308.023 495.578 307.577 495.883C307.131 496.189 306.647 496.331 306.161 496.3C305.242 496.3 304.36 495.719 303.71 494.685C303.06 493.65 302.694 492.248 302.694 490.785C302.694 489.323 303.06 487.92 303.71 486.886C304.36 485.852 305.242 485.271 306.161 485.271C306.669 485.246 307.173 485.411 307.634 485.752C308.095 486.092 308.499 486.6 308.814 487.233V485.467L310.011 485.369ZM308.777 490.766C308.804 489.982 308.683 489.203 308.429 488.53C308.175 487.856 307.799 487.32 307.352 486.989C306.904 486.659 306.404 486.55 305.917 486.676C305.429 486.802 304.977 487.158 304.618 487.697C304.26 488.237 304.011 488.935 303.904 489.701C303.797 490.468 303.837 491.268 304.02 491.998C304.202 492.727 304.517 493.354 304.925 493.795C305.334 494.237 305.816 494.474 306.309 494.475C306.625 494.505 306.941 494.43 307.238 494.256C307.535 494.083 307.806 493.813 308.034 493.465C308.262 493.117 308.443 492.697 308.564 492.233C308.686 491.768 308.746 491.269 308.74 490.766H308.777Z" fill="white"/>
<path d="M312.256 481.837C312.257 481.656 312.281 481.478 312.326 481.312C312.371 481.147 312.436 480.997 312.517 480.871C312.599 480.745 312.695 480.646 312.8 480.58C312.906 480.513 313.018 480.48 313.132 480.482C313.251 480.459 313.373 480.477 313.488 480.534C313.603 480.591 313.709 480.686 313.799 480.813C313.889 480.94 313.961 481.096 314.01 481.271C314.06 481.446 314.085 481.635 314.085 481.827C314.085 482.018 314.06 482.208 314.01 482.382C313.961 482.557 313.889 482.713 313.799 482.84C313.709 482.967 313.603 483.062 313.488 483.119C313.373 483.176 313.251 483.194 313.132 483.171C313.019 483.176 312.907 483.146 312.801 483.081C312.696 483.017 312.6 482.92 312.518 482.795C312.437 482.671 312.371 482.523 312.326 482.358C312.281 482.193 312.257 482.016 312.256 481.837ZM312.49 485.369H313.786V496.751H312.49V485.369Z" fill="white"/>
<path d="M315.352 495.554L315.895 493.925C316.63 494.684 317.487 495.093 318.363 495.103C319.597 495.103 320.065 494.514 320.065 493.552C320.065 491.001 315.537 493.219 315.537 488.666C315.537 486.703 316.685 485.251 318.523 485.251C319.433 485.228 320.331 485.587 321.127 486.291L320.571 487.92C319.955 487.304 319.239 486.99 318.511 487.017C317.376 487.017 316.821 487.685 316.821 488.587C316.821 491.276 321.361 489.078 321.361 493.513C321.361 495.476 320.127 496.889 318.264 496.889C317.232 496.913 316.218 496.448 315.352 495.554Z" fill="white"/>
<path d="M327.062 496.143C326.613 496.688 326.06 496.972 325.495 496.947C325.19 497.003 324.882 496.949 324.592 496.79C324.303 496.63 324.039 496.37 323.822 496.027C323.604 495.684 323.437 495.268 323.334 494.809C323.23 494.35 323.193 493.861 323.225 493.376V487.116H321.991V485.428H323.225V482.936H324.458V485.428H326.593V487.116H324.532V493.297C324.503 493.55 324.511 493.81 324.556 494.057C324.6 494.303 324.68 494.531 324.788 494.721C324.897 494.911 325.032 495.058 325.182 495.151C325.332 495.245 325.494 495.282 325.655 495.26C326.02 495.265 326.376 495.079 326.667 494.73L327.062 496.143Z" fill="white"/>
<path d="M334.834 491.747H329.06C329.152 492.721 329.47 493.605 329.952 494.223C330.435 494.841 331.045 495.148 331.663 495.083C332.049 495.106 332.433 494.995 332.789 494.758C333.145 494.521 333.464 494.163 333.724 493.709L334.439 495.044C333.913 495.898 333.242 496.493 332.508 496.755C331.774 497.017 331.008 496.935 330.303 496.52C329.597 496.105 328.982 495.375 328.532 494.416C328.081 493.458 327.815 492.313 327.765 491.119C327.739 490.348 327.814 489.578 327.984 488.855C328.155 488.133 328.418 487.475 328.756 486.922C329.095 486.369 329.501 485.933 329.951 485.642C330.4 485.351 330.882 485.212 331.367 485.232C331.849 485.213 332.328 485.355 332.774 485.648C333.219 485.941 333.621 486.378 333.954 486.932C334.288 487.486 334.545 488.145 334.709 488.866C334.873 489.587 334.941 490.354 334.908 491.119C334.895 491.331 334.871 491.542 334.834 491.747ZM329.06 490.255H333.662C333.591 489.365 333.318 488.546 332.894 487.952C332.471 487.359 331.926 487.031 331.361 487.031C330.797 487.031 330.251 487.359 329.828 487.952C329.404 488.546 329.131 489.365 329.06 490.255Z" fill="white"/>
<path d="M340.523 485.251V487.214H340.227C339.906 487.178 339.584 487.257 339.285 487.447C338.987 487.637 338.719 487.931 338.502 488.308C338.285 488.686 338.124 489.136 338.032 489.627C337.939 490.117 337.918 490.634 337.969 491.139V496.81H336.674V485.428H337.907V487.39C338.168 486.672 338.553 486.088 339.017 485.708C339.481 485.329 340.004 485.17 340.523 485.251Z" fill="white"/>
<g opacity="0.6">
<path d="M284.138 167.649L284.694 165.804C285.651 167.081 286.862 167.776 288.111 167.767C289.9 167.767 290.665 166.668 290.665 165.235C290.665 161.31 284.398 163.744 284.398 157.64C284.398 155.089 285.631 152.931 288.358 152.931C289.533 152.9 290.688 153.404 291.689 154.383L291.196 156.345C290.348 155.482 289.364 155.02 288.358 155.011C286.594 155.011 285.89 156.188 285.89 157.621C285.89 161.546 292.17 159.112 292.17 165.176C292.17 167.688 290.937 169.847 288.161 169.847C286.698 169.896 285.273 169.117 284.138 167.649Z" fill="#263238"/>
<path d="M293.823 153.186C293.825 152.988 293.851 152.793 293.901 152.612C293.95 152.431 294.022 152.267 294.111 152.13C294.201 151.993 294.306 151.886 294.422 151.814C294.538 151.743 294.662 151.709 294.786 151.714C294.908 151.706 295.031 151.737 295.146 151.805C295.261 151.873 295.366 151.977 295.455 152.11C295.545 152.243 295.617 152.404 295.667 152.582C295.717 152.759 295.745 152.952 295.748 153.147C295.748 153.553 295.647 153.942 295.466 154.229C295.286 154.516 295.041 154.677 294.786 154.677C294.531 154.677 294.286 154.516 294.105 154.229C293.925 153.942 293.823 153.553 293.823 153.147V153.186ZM294.07 157.111H295.501V169.592H294.07V157.111Z" fill="#263238"/>
<path d="M305.705 157.052V167.826C305.705 172.241 304.298 174.243 301.645 174.243C300.314 174.31 299.008 173.652 297.944 172.379L298.623 170.632C299.482 171.713 300.55 172.289 301.645 172.261C303.496 172.261 304.335 170.887 304.335 168.061V167.08C303.986 167.721 303.551 168.23 303.062 168.57C302.573 168.91 302.043 169.071 301.51 169.042C300.993 169.089 300.476 168.968 299.99 168.686C299.504 168.404 299.06 167.967 298.684 167.402C298.308 166.837 298.008 166.156 297.804 165.4C297.599 164.645 297.493 163.831 297.493 163.008C297.493 162.185 297.599 161.371 297.804 160.615C298.008 159.86 298.308 159.179 298.684 158.614C299.06 158.049 299.504 157.612 299.99 157.33C300.476 157.048 300.993 156.926 301.51 156.973C302.055 156.928 302.6 157.082 303.102 157.422C303.604 157.762 304.051 158.28 304.409 158.936V156.973L305.705 157.052ZM304.323 162.939C304.35 162.081 304.215 161.23 303.935 160.496C303.655 159.761 303.243 159.177 302.752 158.818C302.262 158.459 301.715 158.343 301.182 158.484C300.649 158.624 300.155 159.016 299.763 159.607C299.372 160.199 299.101 160.963 298.985 161.802C298.869 162.641 298.914 163.516 299.114 164.314C299.314 165.112 299.66 165.797 300.106 166.279C300.553 166.762 301.081 167.02 301.621 167.021C301.974 167.07 302.329 167.002 302.665 166.819C303 166.637 303.308 166.345 303.568 165.963C303.828 165.58 304.035 165.116 304.176 164.598C304.316 164.081 304.387 163.522 304.384 162.959L304.323 162.939Z" fill="#263238"/>
<path d="M315.871 162.35V169.533H314.44V162.527C314.44 160.074 313.675 158.877 312.33 158.877C311.989 158.841 311.646 158.926 311.327 159.125C311.009 159.323 310.721 159.631 310.486 160.026C310.25 160.422 310.072 160.895 309.965 161.412C309.857 161.929 309.822 162.477 309.863 163.018V169.455H308.444V156.973H309.813V158.936C310.15 158.271 310.583 157.745 311.075 157.403C311.567 157.062 312.103 156.914 312.639 156.973C313.084 156.926 313.53 157.034 313.946 157.291C314.362 157.548 314.737 157.947 315.045 158.46C315.354 158.973 315.587 159.587 315.73 160.259C315.873 160.931 315.921 161.645 315.871 162.35Z" fill="#263238"/>
<path d="M329.801 157.052V169.533H328.456V167.571C328.143 168.213 327.737 168.726 327.274 169.068C326.81 169.409 326.302 169.569 325.791 169.533C325.332 169.608 324.869 169.519 324.435 169.271C324 169.024 323.607 168.624 323.282 168.103C322.958 167.581 322.711 166.951 322.56 166.257C322.41 165.564 322.358 164.826 322.411 164.097V156.914H323.829V163.842C323.829 166.275 324.607 167.512 325.952 167.512C326.294 167.551 326.637 167.469 326.957 167.271C327.277 167.074 327.565 166.766 327.801 166.37C328.037 165.974 328.215 165.499 328.322 164.981C328.429 164.462 328.462 163.912 328.419 163.371V156.914L329.801 157.052Z" fill="#263238"/>
<path d="M340.633 163.292C340.661 164.135 340.578 164.978 340.39 165.766C340.201 166.555 339.911 167.272 339.538 167.873C339.166 168.473 338.718 168.943 338.225 169.252C337.731 169.562 337.203 169.704 336.673 169.67C336.152 169.703 335.633 169.542 335.158 169.202C334.683 168.861 334.264 168.35 333.934 167.708V174.145H332.515V157.111H333.872V159.073C334.198 158.39 334.623 157.842 335.11 157.477C335.598 157.111 336.134 156.938 336.673 156.973C337.2 156.937 337.726 157.076 338.218 157.381C338.709 157.686 339.156 158.15 339.528 158.745C339.901 159.339 340.192 160.051 340.382 160.834C340.572 161.617 340.658 162.454 340.633 163.292ZM339.202 163.292C339.178 162.472 339.003 161.681 338.699 161.017C338.395 160.353 337.976 159.846 337.492 159.557C337.009 159.268 336.483 159.212 335.98 159.394C335.476 159.575 335.017 159.988 334.66 160.581C334.302 161.173 334.062 161.919 333.968 162.727C333.874 163.535 333.932 164.368 334.133 165.124C334.334 165.881 334.67 166.527 335.099 166.983C335.529 167.438 336.033 167.684 336.549 167.688C336.909 167.7 337.267 167.593 337.599 167.374C337.932 167.155 338.233 166.829 338.482 166.416C338.731 166.003 338.924 165.512 339.048 164.974C339.172 164.437 339.224 163.864 339.202 163.292Z" fill="#263238"/>
</g>
<path d="M393.118 261.709H231.691V305.668H393.118V261.709Z" fill="white"/>
<g opacity="0.4">
<path d="M240.523 276.525H241.362V287.967H245.791V289.124H240.523V276.525Z" fill="#263238"/>
<path d="M251.529 283.257V289.144H250.764V287.672C250.54 288.197 250.232 288.619 249.873 288.894C249.513 289.17 249.114 289.29 248.716 289.242C247.371 289.242 246.545 288.124 246.545 286.475C246.545 284.827 247.124 283.806 248.839 283.806H250.727V283.237C250.727 281.608 250.147 280.725 249.037 280.725C248.316 280.71 247.615 281.107 247.063 281.844L246.693 280.882C247.397 280.014 248.27 279.563 249.16 279.607C249.474 279.546 249.792 279.598 250.092 279.758C250.392 279.919 250.665 280.183 250.892 280.533C251.119 280.883 251.294 281.309 251.404 281.78C251.514 282.251 251.557 282.756 251.529 283.257ZM250.727 286.279V284.729H248.864C247.704 284.729 247.334 285.455 247.334 286.436C247.334 287.417 247.889 288.202 248.839 288.202C249.242 288.241 249.641 288.076 249.981 287.73C250.32 287.385 250.581 286.876 250.727 286.279Z" fill="#263238"/>
<path d="M252.886 288.124L253.244 287.123C253.866 287.814 254.607 288.184 255.366 288.182C256.501 288.182 256.957 287.574 256.957 286.632C256.957 284.159 253.108 286.102 253.108 282.374C253.108 280.823 253.934 279.665 255.452 279.665C256.193 279.65 256.922 279.955 257.562 280.548L257.204 281.569C256.685 281.024 256.074 280.743 255.452 280.764C254.379 280.764 253.91 281.432 253.91 282.334C253.91 284.886 257.759 282.962 257.759 286.593C257.759 288.241 256.858 289.301 255.292 289.301C254.431 289.331 253.587 288.918 252.886 288.124Z" fill="#263238"/>
<path d="M262.435 288.555C262.085 288.998 261.649 289.233 261.201 289.222C260.967 289.263 260.729 289.219 260.507 289.094C260.284 288.969 260.082 288.767 259.915 288.501C259.748 288.236 259.621 287.914 259.542 287.56C259.464 287.206 259.436 286.829 259.462 286.455V280.745H258.388V279.665H259.462V277.585H260.264V279.665H262.065V280.745H260.264V286.396C260.242 286.623 260.254 286.853 260.297 287.071C260.34 287.289 260.414 287.489 260.512 287.655C260.611 287.821 260.732 287.95 260.866 288.031C261 288.112 261.145 288.144 261.288 288.123C261.612 288.139 261.928 287.964 262.176 287.633L262.435 288.555Z" fill="#263238"/>
<path d="M273.539 276.525V289.124H272.848L267.765 278.9V289.124H266.926V276.525H267.617L272.712 286.75V276.525H273.539Z" fill="#263238"/>
<path d="M280.498 283.257V289.144H279.708V287.672C279.486 288.2 279.179 288.624 278.819 288.9C278.458 289.176 278.059 289.294 277.66 289.242C276.315 289.242 275.489 288.124 275.489 286.475C275.489 284.827 276.081 283.806 277.796 283.806H279.708V283.237C279.708 281.608 279.129 280.725 278.018 280.725C277.297 280.71 276.597 281.107 276.044 281.844L275.674 280.882C276.377 280.01 277.25 279.558 278.141 279.607C278.454 279.549 278.771 279.603 279.069 279.765C279.367 279.927 279.639 280.192 279.865 280.542C280.09 280.891 280.264 281.316 280.374 281.786C280.483 282.255 280.526 282.758 280.498 283.257ZM279.696 286.279V284.728H277.821C276.673 284.728 276.303 285.455 276.303 286.436C276.303 287.417 276.858 288.202 277.808 288.202C278.213 288.246 278.615 288.082 278.957 287.736C279.299 287.39 279.562 286.88 279.708 286.279H279.696Z" fill="#263238"/>
<path d="M292.502 283.63V289.124H291.7V283.767C291.7 281.804 291.059 280.745 289.985 280.745C289.707 280.724 289.429 280.801 289.172 280.969C288.914 281.137 288.682 281.392 288.493 281.717C288.304 282.043 288.162 282.43 288.076 282.852C287.991 283.273 287.965 283.72 287.999 284.159V289.124H287.197V283.767C287.197 281.804 286.556 280.745 285.47 280.745C285.192 280.724 284.914 280.801 284.656 280.969C284.398 281.137 284.167 281.392 283.977 281.717C283.788 282.043 283.646 282.43 283.561 282.852C283.475 283.273 283.449 283.72 283.483 284.159V289.124H282.681V279.665H283.409V281.392C283.642 280.814 283.966 280.343 284.35 280.026C284.733 279.709 285.162 279.558 285.593 279.587C286.031 279.53 286.469 279.687 286.848 280.038C287.227 280.389 287.53 280.916 287.715 281.549C287.959 280.917 288.305 280.401 288.718 280.056C289.13 279.71 289.594 279.548 290.059 279.587C290.397 279.534 290.738 279.604 291.056 279.791C291.374 279.978 291.662 280.278 291.897 280.667C292.132 281.056 292.309 281.524 292.413 282.038C292.518 282.551 292.549 283.095 292.502 283.63Z" fill="#263238"/>
<path d="M299.893 284.787H294.958C294.976 285.249 295.05 285.701 295.177 286.116C295.305 286.532 295.482 286.904 295.7 287.21C295.918 287.516 296.171 287.751 296.446 287.901C296.721 288.051 297.012 288.114 297.302 288.084C297.645 288.102 297.986 288 298.301 287.787C298.617 287.573 298.899 287.253 299.128 286.848L299.573 287.672C299.145 288.382 298.595 288.876 297.992 289.093C297.389 289.309 296.76 289.238 296.182 288.888C295.604 288.539 295.104 287.926 294.743 287.127C294.383 286.328 294.179 285.378 294.156 284.395C294.136 283.77 294.197 283.145 294.334 282.559C294.472 281.972 294.684 281.437 294.957 280.987C295.23 280.536 295.558 280.179 295.921 279.938C296.284 279.698 296.675 279.578 297.068 279.587C297.461 279.575 297.851 279.692 298.214 279.933C298.577 280.173 298.904 280.53 299.176 280.982C299.447 281.434 299.656 281.971 299.791 282.558C299.925 283.146 299.981 283.771 299.955 284.395C299.906 284.513 299.893 284.65 299.893 284.787ZM294.958 283.845H299.178C299.178 282.955 298.956 282.102 298.56 281.473C298.164 280.843 297.628 280.49 297.068 280.49C296.509 280.49 295.972 280.843 295.576 281.473C295.181 282.102 294.958 282.955 294.958 283.845Z" fill="#263238"/>
</g>
<path d="M393.118 201.658H231.691V245.617H393.118V201.658Z" fill="white"/>
<g opacity="0.4">
<path d="M241.362 217.632V222.578H245.458V223.736H241.362V229.073H240.523V216.475H245.952V217.632H241.362Z" fill="#263238"/>
<path d="M247.222 216.612C247.22 216.424 247.253 216.239 247.317 216.081C247.381 215.923 247.474 215.8 247.582 215.726C247.691 215.652 247.811 215.632 247.927 215.668C248.043 215.703 248.15 215.794 248.233 215.926C248.317 216.059 248.374 216.229 248.396 216.414C248.418 216.598 248.406 216.789 248.359 216.962C248.313 217.135 248.235 217.282 248.136 217.384C248.037 217.486 247.921 217.538 247.802 217.534C247.649 217.534 247.501 217.437 247.392 217.264C247.284 217.091 247.222 216.857 247.222 216.612ZM247.395 219.615H248.197V229.074H247.395V219.615Z" fill="#263238"/>
<path d="M253.441 219.536V220.772H253.243C252.96 220.75 252.677 220.828 252.415 221.001C252.152 221.173 251.917 221.436 251.726 221.77C251.535 222.103 251.393 222.5 251.31 222.932C251.226 223.363 251.204 223.819 251.245 224.266V229.093H250.443V219.634H251.208V221.4C251.421 220.771 251.747 220.258 252.145 219.926C252.543 219.594 252.994 219.458 253.441 219.536Z" fill="#263238"/>
<path d="M254.107 227.994L254.465 226.974C255.082 227.685 255.825 228.063 256.587 228.053C257.722 228.053 258.179 227.425 258.179 226.503C258.179 224.03 254.329 225.973 254.329 222.224C254.329 220.694 255.156 219.536 256.673 219.536C257.415 219.51 258.146 219.816 258.783 220.419L258.425 221.44C257.906 220.894 257.295 220.614 256.673 220.635C255.6 220.635 255.131 221.302 255.131 222.205C255.131 224.756 258.981 222.833 258.981 226.463C258.981 228.092 258.08 229.152 256.513 229.152C255.654 229.187 254.81 228.781 254.107 227.994Z" fill="#263238"/>
<path d="M263.67 228.504C263.315 228.933 262.881 229.161 262.436 229.152C262.202 229.196 261.965 229.155 261.742 229.032C261.519 228.91 261.317 228.709 261.15 228.445C260.982 228.181 260.855 227.861 260.776 227.507C260.698 227.154 260.67 226.777 260.696 226.405V220.694H259.623V219.615H260.696V217.475H261.498V219.556H263.299V220.635H261.498V226.267C261.477 226.494 261.489 226.725 261.532 226.944C261.575 227.163 261.648 227.364 261.747 227.531C261.845 227.699 261.966 227.829 262.1 227.913C262.234 227.996 262.378 228.031 262.522 228.014C262.845 228.02 263.159 227.847 263.41 227.523L263.67 228.504Z" fill="#263238"/>
<path d="M274.774 216.475V229.073H274.083L268.999 218.849V229.073H268.161V216.475H268.851L273.947 226.699V216.475H274.774Z" fill="#263238"/>
<path d="M281.719 223.206V229.093H280.942V227.621C280.721 228.145 280.415 228.566 280.057 228.838C279.699 229.111 279.302 229.226 278.906 229.172C277.549 229.172 276.722 228.073 276.722 226.424C276.722 224.776 277.315 223.755 279.03 223.755H280.942V223.167C280.942 221.557 280.362 220.674 279.252 220.674C278.531 220.659 277.83 221.056 277.278 221.793L276.908 220.831C277.611 219.96 278.484 219.509 279.375 219.556C279.687 219.498 280.004 219.552 280.302 219.714C280.599 219.875 280.87 220.141 281.095 220.491C281.32 220.841 281.492 221.266 281.6 221.736C281.708 222.206 281.749 222.708 281.719 223.206ZM280.917 226.228V224.678H279.042C277.895 224.678 277.524 225.404 277.524 226.365C277.524 227.327 278.08 228.151 279.03 228.151C279.436 228.196 279.84 228.034 280.184 227.688C280.528 227.342 280.793 226.83 280.942 226.228H280.917Z" fill="#263238"/>
<path d="M293.724 223.579V229.073H292.922V223.716C292.922 221.754 292.28 220.694 291.207 220.694C290.929 220.673 290.651 220.75 290.393 220.918C290.135 221.086 289.904 221.341 289.715 221.667C289.525 221.992 289.383 222.379 289.298 222.801C289.213 223.222 289.186 223.669 289.221 224.109V229.073H288.419V223.716C288.419 221.754 287.777 220.694 286.691 220.694C286.413 220.673 286.135 220.75 285.878 220.918C285.62 221.086 285.388 221.341 285.199 221.667C285.01 221.992 284.868 222.379 284.782 222.801C284.697 223.222 284.671 223.669 284.705 224.109V229.073H283.903V219.614H284.643V221.4C284.876 220.822 285.2 220.35 285.584 220.034C285.967 219.717 286.396 219.566 286.827 219.595C287.265 219.538 287.702 219.695 288.082 220.046C288.461 220.397 288.764 220.924 288.949 221.557C289.191 220.922 289.537 220.404 289.95 220.058C290.363 219.712 290.827 219.552 291.293 219.595C291.627 219.547 291.962 219.619 292.276 219.804C292.589 219.989 292.873 220.283 293.106 220.665C293.339 221.047 293.515 221.506 293.622 222.011C293.729 222.515 293.764 223.05 293.724 223.579Z" fill="#263238"/>
<path d="M301.114 224.736H296.179C296.196 225.198 296.271 225.65 296.398 226.065C296.525 226.481 296.703 226.853 296.921 227.159C297.138 227.465 297.392 227.7 297.667 227.85C297.942 228 298.233 228.063 298.523 228.033C298.867 228.051 299.209 227.948 299.525 227.731C299.84 227.513 300.122 227.188 300.349 226.777L300.793 227.621C300.366 228.331 299.816 228.825 299.213 229.042C298.61 229.258 297.98 229.187 297.402 228.837C296.825 228.488 296.324 227.875 295.964 227.076C295.604 226.277 295.4 225.327 295.377 224.344C295.357 223.719 295.417 223.094 295.555 222.508C295.693 221.922 295.905 221.387 296.177 220.936C296.45 220.485 296.779 220.128 297.142 219.887C297.505 219.647 297.895 219.527 298.289 219.536C298.682 219.524 299.072 219.641 299.435 219.882C299.797 220.122 300.125 220.479 300.396 220.931C300.668 221.383 300.877 221.92 301.011 222.507C301.145 223.095 301.201 223.72 301.176 224.344C301.126 224.442 301.114 224.579 301.114 224.736ZM296.179 223.775H300.398C300.398 222.885 300.176 222.031 299.781 221.402C299.385 220.773 298.848 220.419 298.289 220.419C297.729 220.419 297.193 220.773 296.797 221.402C296.401 222.031 296.179 222.885 296.179 223.775Z" fill="#263238"/>
</g>
<path d="M315.26 374.486H314.088C314.088 371.718 315.532 306.879 322.626 295.988C329.917 284.704 338.492 295.831 338.566 295.988L337.826 297.401C337.505 296.989 329.967 287.255 323.428 297.401C316.679 307.625 315.272 373.818 315.26 374.486Z" fill="#206F7E"/>
<path d="M314.668 387.497L313.509 387.32C313.509 386.535 318.098 308.587 300.344 276.167L301.22 274.95C319.307 307.978 314.718 386.712 314.668 387.497Z" fill="#206F7E"/>
<path d="M315.235 379.176C315.087 375.486 311.67 288.903 325.315 268.886L326.105 270.26C312.866 289.61 316.358 378.195 316.395 379.039L315.235 379.176Z" fill="#206F7E"/>
<path d="M313.509 379.117C313.509 378.528 313.089 320.244 303.379 311.471C302.554 310.606 301.61 310.068 300.626 309.904C299.643 309.74 298.649 309.955 297.729 310.529C292.041 314.278 289.018 331.547 288.981 331.724L287.858 331.233C287.982 330.487 291.066 312.924 297.284 308.822C298.368 308.13 299.54 307.863 300.702 308.044C301.864 308.225 302.981 308.849 303.959 309.862C314.236 319.223 314.668 376.585 314.681 379.097L313.509 379.117Z" fill="#206F7E"/>
<path d="M317.506 379.156C317.432 377.194 315.939 333.157 323.798 316.809C325.896 312.472 328.215 310.412 330.732 310.706C336.321 311.315 340.602 323.364 340.837 323.874L339.825 324.796C339.825 324.679 335.606 313.022 330.646 312.551C328.561 312.296 326.562 314.121 324.724 317.948C317.124 333.647 318.653 378.607 318.666 379.058L317.506 379.156Z" fill="#206F7E"/>
<path d="M315.939 385.259L314.779 385.122C314.779 384.062 319.714 278.915 311.571 261.37L312.509 260.271C320.924 278.365 316.149 380.903 315.939 385.259Z" fill="#206F7E"/>
<path d="M295.026 319.282C295.026 319.282 300.06 322.245 298.567 329.212C297.074 336.179 281.134 347.659 281.134 347.659C281.134 347.659 274.459 337.945 280.591 322.147C286.723 306.349 294.89 314.297 295.026 319.282Z" fill="#206F7E"/>
<path opacity="0.2" d="M295.026 319.282C295.026 319.282 300.06 322.245 298.567 329.212C297.074 336.179 281.134 347.659 281.134 347.659C281.134 347.659 274.459 337.945 280.591 322.147C286.723 306.349 294.89 314.297 295.026 319.282Z" fill="black"/>
<path d="M316.926 306.016C316.926 306.016 311.559 305.663 311.251 313.002C310.942 320.342 322.848 340.712 322.848 340.712C322.848 340.712 331.361 335.806 329.535 317.457C327.709 299.108 318.258 301.483 316.926 306.016Z" fill="#206F7E"/>
<path opacity="0.2" d="M316.926 306.016C316.926 306.016 311.559 305.663 311.251 313.002C310.942 320.342 322.848 340.712 322.848 340.712C322.848 340.712 331.361 335.806 329.535 317.457C327.709 299.108 318.258 301.483 316.926 306.016Z" fill="black"/>
<path d="M321.466 270.81C321.466 270.81 317.888 270.201 318.172 266.747C318.455 263.293 332.076 254.364 340.108 268.71C340.108 268.71 334.963 282.761 327.536 282.957C320.109 283.153 321.466 270.81 321.466 270.81Z" fill="#206F7E"/>
<path opacity="0.2" d="M321.466 270.81C321.466 270.81 317.888 270.201 318.172 266.747C318.455 263.293 332.076 254.364 340.108 268.71C340.108 268.71 334.963 282.761 327.536 282.957C320.109 283.153 321.466 270.81 321.466 270.81Z" fill="black"/>
<path d="M314.803 262.391C314.803 262.391 318.036 264.883 318.949 261.704C319.862 258.525 311.262 239.509 299.653 244.984C299.653 244.984 299.344 261.233 305.587 267.65C311.83 274.067 314.803 262.391 314.803 262.391Z" fill="#206F7E"/>
<path opacity="0.2" d="M314.803 262.391C314.803 262.391 318.036 264.883 318.949 261.704C319.862 258.525 311.262 239.509 299.653 244.984C299.653 244.984 299.344 261.233 305.587 267.65C311.83 274.067 314.803 262.391 314.803 262.391Z" fill="black"/>
<path d="M331.732 316.495C331.732 316.495 329.264 313.316 331.929 311.766C334.594 310.216 347.66 310.667 347.795 331.253C347.795 331.253 332.571 335.276 330.695 327.426C328.82 319.576 331.732 316.495 331.732 316.495Z" fill="#206F7E"/>
<path opacity="0.2" d="M331.732 316.495C331.732 316.495 329.264 313.316 331.929 311.766C334.594 310.216 347.66 310.667 347.795 331.253C347.795 331.253 332.571 335.276 330.695 327.426C328.82 319.576 331.732 316.495 331.732 316.495Z" fill="black"/>
<path d="M300.64 270.299C300.64 270.299 303.107 267.12 300.442 265.589C297.777 264.059 284.711 264.471 284.576 285.057C284.576 285.057 299.801 289.1 301.676 281.25C303.551 273.4 300.64 270.299 300.64 270.299Z" fill="#206F7E"/>
<path opacity="0.2" d="M300.64 270.299C300.64 270.299 303.107 267.12 300.442 265.589C297.777 264.059 284.711 264.471 284.576 285.057C284.576 285.057 299.801 289.1 301.676 281.25C303.551 273.4 300.64 270.299 300.64 270.299Z" fill="black"/>
<path d="M308.733 286.882C308.733 286.882 308.955 282.957 306.994 284.547C305.032 286.136 298.234 297.754 305.291 308.842C305.291 308.842 314.803 297.636 313.088 291.808C311.373 285.979 308.733 286.882 308.733 286.882Z" fill="#206F7E"/>
<path opacity="0.2" d="M308.733 286.882C308.733 286.882 308.955 282.957 306.994 284.547C305.032 286.136 298.234 297.754 305.291 308.842C305.291 308.842 314.803 297.636 313.088 291.808C311.373 285.979 308.733 286.882 308.733 286.882Z" fill="black"/>
<path d="M333.952 292.377C333.952 292.377 332.471 289.296 334.643 288.923C336.814 288.55 346.487 292.652 344.229 308.037C344.229 308.037 332.434 306.624 331.892 300.188C331.349 293.751 333.952 292.377 333.952 292.377Z" fill="#206F7E"/>
<path opacity="0.2" d="M333.952 292.377C333.952 292.377 332.471 289.296 334.643 288.923C336.814 288.55 346.487 292.652 344.229 308.037C344.229 308.037 332.434 306.624 331.892 300.188C331.349 293.751 333.952 292.377 333.952 292.377Z" fill="black"/>
<path d="M295.901 436.185H334.037L339.108 377.194H290.83L295.901 436.185Z" fill="#263238"/>
<path opacity="0.2" d="M295.901 436.185H334.037L339.108 377.194H290.83L295.901 436.185Z" fill="white"/>
<path d="M343.896 372.405V378.018C343.896 379.819 343.446 381.546 342.646 382.819C341.845 384.093 340.759 384.808 339.627 384.808H289.844C288.712 384.808 287.626 384.093 286.825 382.819C286.025 381.546 285.575 379.819 285.575 378.018V372.405H343.896Z" fill="#263238"/>
<path d="M330.352 290H294.906C292.013 290 289.239 291.828 287.194 295.082C285.148 298.335 283.999 302.747 283.999 307.348V356.41C283.998 358.689 284.279 360.947 284.826 363.054C285.373 365.161 286.176 367.076 287.189 368.689C288.202 370.302 289.405 371.582 290.729 372.455C292.053 373.328 293.473 373.777 294.906 373.777H305.257L302.79 389.261L312.66 373.777H330.414C333.31 373.777 336.087 371.947 338.135 368.69C340.183 365.433 341.333 361.016 341.333 356.41V307.348C341.333 305.06 341.048 302.795 340.496 300.682C339.943 298.57 339.133 296.652 338.112 295.04C337.092 293.427 335.881 292.152 334.549 291.287C333.217 290.422 331.791 289.985 330.352 290Z" fill="#206F7E"/>
<path opacity="0.7" d="M330.352 290H294.906C292.013 290 289.239 291.828 287.194 295.082C285.148 298.335 283.999 302.747 283.999 307.348V356.41C283.998 358.689 284.279 360.947 284.826 363.054C285.373 365.161 286.176 367.076 287.189 368.689C288.202 370.302 289.405 371.582 290.729 372.455C292.053 373.328 293.473 373.777 294.906 373.777H305.257L302.79 389.261L312.66 373.777H330.414C333.31 373.777 336.087 371.947 338.135 368.69C340.183 365.433 341.333 361.016 341.333 356.41V307.348C341.333 305.06 341.048 302.795 340.496 300.682C339.943 298.57 339.133 296.652 338.112 295.04C337.092 293.427 335.881 292.152 334.549 291.287C333.217 290.422 331.791 289.985 330.352 290Z" fill="white"/>
<path d="M312.635 353.564C320.232 353.564 326.391 343.767 326.391 331.683C326.391 319.598 320.232 309.801 312.635 309.801C305.037 309.801 298.878 319.598 298.878 331.683C298.878 343.767 305.037 353.564 312.635 353.564Z" fill="white"/>
<path d="M312.635 303.698C309.155 303.698 305.754 305.34 302.861 308.415C299.967 311.49 297.712 315.86 296.381 320.974C295.049 326.087 294.701 331.714 295.38 337.142C296.058 342.571 297.734 347.557 300.195 351.471C302.655 355.384 305.79 358.05 309.203 359.13C312.616 360.209 316.153 359.655 319.368 357.537C322.583 355.419 325.331 351.832 327.264 347.23C329.197 342.628 330.229 337.218 330.229 331.683C330.23 328.007 329.777 324.367 328.893 320.971C328.009 317.574 326.713 314.488 325.079 311.889C323.445 309.29 321.505 307.229 319.37 305.823C317.235 304.418 314.946 303.696 312.635 303.698ZM322.616 323.323L312.018 343.183C311.868 343.47 311.679 343.7 311.466 343.856C311.252 344.012 311.019 344.09 310.785 344.085C310.55 344.088 310.318 344.008 310.105 343.852C309.891 343.696 309.702 343.468 309.551 343.183L302.654 330.25C302.508 329.994 302.396 329.695 302.325 329.369C302.254 329.043 302.224 328.697 302.239 328.353C302.253 328.009 302.311 327.672 302.409 327.364C302.507 327.056 302.642 326.783 302.808 326.56C302.974 326.337 303.166 326.17 303.373 326.068C303.581 325.966 303.799 325.931 304.015 325.966C304.231 326.001 304.44 326.104 304.63 326.271C304.82 326.437 304.987 326.662 305.121 326.934L310.785 337.55L320.149 320.006C320.43 319.513 320.821 319.212 321.239 319.168C321.657 319.123 322.07 319.339 322.39 319.769C322.71 320.199 322.912 320.81 322.954 321.473C322.997 322.136 322.876 322.799 322.616 323.323Z" fill="#206F7E"/>
<path d="M364.994 283.949C364.994 283.949 343.514 279.631 310.967 293.761C310.967 293.761 305.736 201.251 306.352 188.534C306.969 175.818 356.604 179.546 356.604 179.546C356.604 179.546 357.838 216.578 361.071 238.91C364.303 261.243 366.672 279.651 364.994 283.949Z" fill="#206F7E"/>
<path opacity="0.2" d="M364.994 283.949C364.994 283.949 343.514 279.631 310.967 293.761C310.967 293.761 305.736 201.251 306.352 188.534C306.969 175.818 356.604 179.546 356.604 179.546C356.604 179.546 357.838 216.578 361.071 238.91C364.303 261.243 366.672 279.651 364.994 283.949Z" fill="black"/>
<path d="M295.273 590.208L304.033 594.152L306.118 572.467L307.241 560.869L298.481 556.925L296.988 572.467L295.273 590.208Z" fill="#E4897B"/>
<path d="M345.636 591.346L354.667 593.25L354.753 572.467L354.815 559.554L345.771 557.67L345.71 572.467L345.636 591.346Z" fill="#E4897B"/>
<path opacity="0.2" d="M345.772 557.67L345.71 572.467H354.754L354.815 559.554L345.772 557.67Z" fill="black"/>
<path opacity="0.2" d="M296.989 572.467H306.119L307.241 560.869L298.482 556.925L296.989 572.467Z" fill="black"/>
<path d="M256.384 196.129L247.686 192.047L249.278 207.845C249.278 207.845 257.174 210.73 257.914 204.195L256.384 196.129Z" fill="#E4897B"/>
<path d="M239.001 195.717L243.27 208.551L249.278 207.845L247.687 192.047L239.001 195.717Z" fill="#E4897B"/>
<path d="M268.389 200.172L254.102 195.089L252.807 206.118L265.774 211.142L268.389 200.172Z" fill="#E4897B"/>
<path d="M311.609 190.203L310.77 191.792C308.968 195.148 304.601 203.253 300.048 210.239C296.347 215.93 292.646 220.895 290.178 221.896C283.182 224.761 257.754 212.849 257.754 212.849L260.382 196.443C260.382 196.443 284.071 201.447 285.909 201.447C287.303 201.447 301.714 168.243 305.205 165.515L311.609 190.203Z" fill="#206F7E"/>
<path opacity="0.2" d="M310.77 191.792C308.968 195.148 304.601 203.253 300.048 210.239C300.961 198.739 303.614 188.181 307.105 181.509C307.431 180.865 307.804 180.285 308.216 179.782L310.77 191.792Z" fill="black"/>
<path d="M295.384 588.03L305.329 587.617C305.508 587.608 305.684 587.697 305.827 587.868C305.971 588.039 306.074 588.283 306.118 588.559L308.216 601.296C308.266 601.601 308.272 601.92 308.234 602.229C308.196 602.538 308.115 602.83 307.997 603.083C307.878 603.335 307.725 603.542 307.55 603.688C307.374 603.834 307.18 603.915 306.982 603.925C303.392 603.925 298.197 603.925 293.694 604.063C288.414 604.298 285.058 603.886 278.889 604.063C275.187 604.22 273.954 598.293 275.533 597.685C282.602 594.898 287.229 595.448 293.25 589.168C293.885 588.494 294.622 588.101 295.384 588.03Z" fill="#263238"/>
<path d="M294.521 590.07C293.065 590.581 290.474 591.267 289.437 589.913C289.286 589.714 289.167 589.461 289.09 589.175C289.013 588.888 288.98 588.576 288.993 588.265C288.993 588.078 289.023 587.894 289.082 587.732C289.14 587.57 289.225 587.436 289.326 587.343C290.424 586.302 294.138 589.109 294.57 589.423C294.608 589.455 294.639 589.503 294.661 589.562C294.683 589.621 294.694 589.688 294.693 589.756C294.691 589.832 294.673 589.905 294.642 589.962C294.61 590.019 294.568 590.057 294.521 590.07ZM289.586 587.892H289.511C289.47 587.93 289.436 587.984 289.412 588.05C289.388 588.115 289.376 588.189 289.376 588.265C289.366 588.468 289.386 588.672 289.435 588.859C289.485 589.047 289.562 589.213 289.66 589.344C290.239 590.11 291.745 590.188 293.743 589.56C292.3 588.598 290.289 587.48 289.61 587.892H289.586Z" fill="#206F7E"/>
<path d="M294.52 590.07H294.372C293.249 589.325 291.004 586.303 291.127 584.674C291.127 584.281 291.324 583.791 291.917 583.673C292.134 583.628 292.355 583.651 292.567 583.742C292.779 583.833 292.977 583.99 293.15 584.203C294.384 585.675 294.668 589.541 294.693 589.698C294.696 589.757 294.69 589.817 294.675 589.872C294.66 589.927 294.636 589.975 294.606 590.012L294.52 590.07ZM291.756 584.438C291.571 584.536 291.559 584.693 291.559 584.752C291.485 585.733 293.015 588.128 294.162 589.148C294.03 587.5 293.572 585.96 292.854 584.752C292.733 584.589 292.59 584.47 292.437 584.402C292.284 584.335 292.123 584.32 291.966 584.36C291.894 584.37 291.823 584.396 291.756 584.438Z" fill="#206F7E"/>
<path d="M345.995 588.029L355.939 587.617C356.12 587.607 356.298 587.695 356.443 587.866C356.589 588.037 356.694 588.281 356.741 588.559L358.826 601.296C358.879 601.601 358.887 601.921 358.85 602.232C358.813 602.543 358.732 602.836 358.613 603.09C358.494 603.343 358.34 603.55 358.164 603.695C357.987 603.84 357.791 603.919 357.592 603.925C354.002 603.925 348.808 603.925 344.292 604.063C339.024 604.298 335.656 603.886 329.487 604.063C325.786 604.22 324.552 598.293 326.131 597.685C333.201 594.898 337.815 595.448 343.836 589.168C344.478 588.487 345.224 588.094 345.995 588.029Z" fill="#263238"/>
<path d="M345.143 590.07C343.687 590.581 341.084 591.267 340.06 589.913C339.909 589.714 339.79 589.461 339.712 589.175C339.635 588.888 339.602 588.576 339.616 588.265C339.615 588.078 339.646 587.894 339.704 587.732C339.763 587.57 339.847 587.436 339.949 587.343C341.035 586.302 344.761 589.109 345.18 589.423C345.221 589.448 345.256 589.495 345.278 589.556C345.3 589.616 345.309 589.687 345.303 589.756C345.3 589.829 345.283 589.897 345.254 589.953C345.226 590.01 345.187 590.05 345.143 590.07ZM340.208 587.892H340.134C340.093 587.929 340.06 587.984 340.038 588.05C340.016 588.116 340.007 588.19 340.011 588.265C339.998 588.468 340.018 588.673 340.067 588.861C340.117 589.05 340.195 589.216 340.294 589.344C340.874 590.11 342.367 590.188 344.378 589.56C342.91 588.598 340.899 587.48 340.22 587.892H340.208Z" fill="#206F7E"/>
<path d="M345.142 590.07H344.982C343.872 589.325 341.614 586.303 341.75 584.674C341.75 584.281 341.935 583.791 342.527 583.673C342.744 583.625 342.966 583.648 343.178 583.739C343.389 583.83 343.588 583.988 343.761 584.203C344.624 585.732 345.163 587.654 345.303 589.698C345.309 589.758 345.304 589.819 345.289 589.875C345.274 589.931 345.248 589.978 345.216 590.012L345.142 590.07ZM342.366 584.438C342.194 584.536 342.181 584.693 342.181 584.752C342.095 585.733 343.637 588.128 344.785 589.148C344.643 587.504 344.187 585.969 343.477 584.752C343.355 584.591 343.212 584.472 343.059 584.404C342.906 584.337 342.746 584.321 342.589 584.36L342.366 584.438Z" fill="#206F7E"/>
<path d="M364.266 275.51C369.053 308.499 360.836 568.032 360.836 568.032H344.97L338.184 351.751L313.2 568.032L296.236 566.07C307.34 398.516 317.124 298.49 317.124 298.49V285.852L364.266 275.51Z" fill="#263238"/>
<path opacity="0.4" d="M296.236 566.07L313.2 568.032L332.867 397.77L338.184 351.751L344.97 568.032H360.836C360.836 568.032 369.053 308.499 364.266 275.51L317.099 285.852V298.49C317.099 298.49 307.327 398.516 296.236 566.07Z" fill="white"/>
<path d="M355.716 153.328C355.23 169.101 355.481 184.91 356.469 200.623C357.135 211.613 358.048 221.994 359.022 231.355C361.305 253.315 363.896 269.78 364.266 275.53L317.099 285.872C299.9 209.336 306.377 164.867 306.377 164.867C309.904 162.551 313.518 160.585 317.197 158.98C317.975 158.646 318.764 158.332 319.578 158.038C326.203 155.965 332.897 154.497 339.627 153.642C340.861 153.466 342.206 153.328 343.464 153.23C349.905 152.72 355.716 153.328 355.716 153.328Z" fill="#263238"/>
<path d="M330.473 118.887C330.818 129.386 331.522 149.089 337.012 154.094C337.012 154.094 333.594 164.436 326.204 165.495C320.615 166.28 320.985 157.508 320.985 157.508C324.218 153.681 323.453 147.186 320.985 139.846L330.473 118.887Z" fill="#E4897B"/>
<path opacity="0.2" d="M326.599 127.443L321.023 139.846C321.61 141.542 322.105 143.315 322.503 145.145C325.094 143.496 328.067 137.295 327.636 132.801C327.5 130.929 327.149 129.113 326.599 127.443Z" fill="black"/>
<path d="M306.414 97.7516C305.341 103.207 305.933 114.393 310.708 110.763C315.483 107.132 308.265 88.3907 306.414 97.7516Z" fill="#263238"/>
<path d="M331.09 105.13C331.62 119.123 332.324 127.267 328.487 135.195C322.651 147.107 311.349 142.672 308.191 129.17C305.353 117.003 304.971 96.1621 313.126 89.0973C314.934 87.5329 316.962 86.7235 319.019 86.7449C321.077 86.7663 323.098 87.6177 324.893 89.2195C326.688 90.8214 328.198 93.1212 329.281 95.9039C330.365 98.6866 330.987 101.861 331.09 105.13Z" fill="#E4897B"/>
<path d="M324.921 97.5161V81.8165C324.921 81.8165 335.383 80.5802 334.914 89.0972C340.713 93.6697 337.974 108.015 330.189 115.041C325.92 109.605 326.413 96.5349 326.413 96.5349C325.957 96.9077 325.439 97.2217 324.921 97.5161Z" fill="#263238"/>
<path d="M335.346 116.042C335.144 117.753 334.729 119.384 334.125 120.836C333.522 122.289 332.741 123.535 331.83 124.5C329.362 127.071 327.228 123.911 327.141 119.496C327.067 115.571 328.239 109.369 331.077 108.584C331.698 108.431 332.333 108.524 332.925 108.856C333.518 109.188 334.049 109.748 334.472 110.487C334.895 111.226 335.196 112.12 335.349 113.089C335.501 114.059 335.5 115.073 335.346 116.042Z" fill="#E4897B"/>
<path d="M318.098 111.371C318.184 112.509 317.876 113.49 317.407 113.569C316.938 113.647 316.494 112.804 316.408 111.607C316.321 110.409 316.63 109.487 317.086 109.409C317.543 109.33 318.012 110.154 318.098 111.371Z" fill="#263238"/>
<path d="M310.03 112.804C310.116 113.942 309.808 114.923 309.339 115.002C308.87 115.08 308.426 114.236 308.339 113.039C308.253 111.842 308.561 110.92 309.03 110.841C309.499 110.763 309.919 111.665 310.03 112.804Z" fill="#263238"/>
<path d="M312.632 112.902C312.009 116.411 311.083 119.766 309.881 122.871C310.413 123.306 310.997 123.557 311.595 123.608C312.192 123.658 312.79 123.508 313.348 123.165L312.632 112.902Z" fill="#DE5753"/>
<path d="M317.507 126.815C317.202 126.939 316.893 127.031 316.581 127.09C316.526 127.09 316.472 127.055 316.433 126.992C316.394 126.93 316.372 126.845 316.372 126.757C316.372 126.668 316.394 126.583 316.433 126.521C316.472 126.458 316.526 126.423 316.581 126.423C317.467 126.295 318.322 125.838 319.076 125.088C319.831 124.338 320.464 123.316 320.924 122.106C320.935 122.066 320.95 122.03 320.97 122C320.99 121.971 321.013 121.948 321.038 121.933C321.064 121.918 321.091 121.912 321.118 121.915C321.145 121.918 321.172 121.929 321.196 121.949C321.221 121.967 321.244 121.994 321.262 122.027C321.281 122.06 321.296 122.099 321.305 122.141C321.314 122.183 321.318 122.228 321.316 122.272C321.314 122.317 321.307 122.36 321.294 122.4C320.891 123.515 320.346 124.483 319.693 125.243C319.041 126.004 318.296 126.539 317.507 126.815Z" fill="#263238"/>
<path d="M320.27 106.799C320.195 106.826 320.117 106.823 320.044 106.788C319.97 106.754 319.903 106.69 319.85 106.602C319.493 105.98 319.049 105.498 318.555 105.194C318.06 104.891 317.528 104.775 317 104.856C316.946 104.876 316.889 104.878 316.834 104.861C316.779 104.845 316.727 104.811 316.681 104.761C316.635 104.712 316.595 104.647 316.565 104.573C316.535 104.498 316.515 104.414 316.507 104.326C316.496 104.24 316.496 104.151 316.507 104.064C316.518 103.978 316.539 103.896 316.57 103.823C316.601 103.75 316.641 103.688 316.687 103.639C316.734 103.591 316.785 103.557 316.84 103.541C317.506 103.415 318.181 103.543 318.81 103.915C319.439 104.287 320.002 104.892 320.455 105.68C320.495 105.741 320.527 105.814 320.549 105.895C320.571 105.976 320.582 106.063 320.582 106.151C320.582 106.239 320.571 106.326 320.549 106.407C320.527 106.488 320.495 106.561 320.455 106.622C320.402 106.702 320.339 106.762 320.27 106.799Z" fill="#263238"/>
<path d="M306.218 109.016C306.138 109.064 306.05 109.064 305.971 109.016C305.867 108.958 305.781 108.837 305.732 108.679C305.684 108.521 305.677 108.339 305.712 108.172C305.916 107.162 306.27 106.245 306.745 105.501C307.22 104.756 307.801 104.204 308.439 103.894C308.547 103.85 308.661 103.876 308.757 103.966C308.853 104.056 308.923 104.203 308.951 104.375C308.978 104.547 308.962 104.729 308.906 104.882C308.849 105.034 308.756 105.145 308.648 105.189C308.144 105.437 307.685 105.877 307.313 106.473C306.941 107.068 306.666 107.8 306.514 108.604C306.49 108.707 306.451 108.799 306.399 108.871C306.347 108.943 306.285 108.993 306.218 109.016Z" fill="#263238"/>
<path d="M329.56 103.325C329.56 103.325 323.391 99.7337 320.578 94.0427C320.578 94.0427 314.976 96.378 313.829 99.93C313.306 99.2168 312.967 98.2205 312.878 97.1333C312.789 96.0461 312.956 94.945 313.348 94.0427C313.348 94.0427 309.153 95.4556 308.326 99.93C307.645 99.4138 307.085 98.5633 306.73 97.5036C306.374 96.4439 306.242 95.2308 306.352 94.0427C306.352 94.0427 304.489 95.1612 303.885 99.93C303.885 99.93 299.258 84.5837 314.545 80.1878C313.388 79.5634 312.176 79.2387 310.954 79.2262C310.954 79.2262 321.626 72.3773 330.078 78.6375C338.529 84.8977 337.061 97.0256 329.56 103.325Z" fill="#263238"/>
<path d="M367.906 288.737L353.1 291.877C353.1 291.877 346.993 223.996 344.303 202.075V155.291L352.039 152.053L358.035 155.291C359.68 164.703 360.945 174.273 361.823 183.942C362.551 191.282 363.205 199.132 363.785 207.08C364.587 217.912 365.253 228.941 365.821 239.264C366.709 255.925 367.301 270.663 367.622 279.67C367.807 285.322 367.906 288.737 367.906 288.737Z" fill="#206F7E"/>
<path d="M344.316 202.036C344.316 202.036 345.55 169.008 352.052 151.974C352.052 151.974 351.892 147.107 350.596 146.322C349.301 145.537 344.316 150.247 344.316 150.247C344.316 150.247 341.219 146.872 340.541 148.442C339.862 150.012 338.209 160.452 344.316 202.036Z" fill="#206F7E"/>
<path opacity="0.7" d="M344.316 202.036C344.316 202.036 345.55 169.008 352.052 151.974C352.052 151.974 351.892 147.107 350.596 146.322C349.301 145.537 344.316 150.247 344.316 150.247C344.316 150.247 341.219 146.872 340.541 148.442C339.862 150.012 338.209 160.452 344.316 202.036Z" fill="white"/>
<path d="M310.659 297.784L312.349 299.746C312.349 299.746 309.882 277.865 310.893 222.524C310.893 219.855 311.004 217.284 311.066 214.831C312.3 168.007 316.889 159.49 317.235 158.98L312.966 161.296L305.23 165.535C302.898 205.47 310.659 297.784 310.659 297.784Z" fill="#206F7E"/>
<path d="M311.325 206.766C311.325 206.766 307.056 174.66 308.327 163.592C309.598 152.524 314.15 157.449 314.15 157.449C314.15 157.449 318.333 152.072 319.579 157.999C319.579 157.999 313.83 164.436 311.325 206.766Z" fill="#206F7E"/>
<path opacity="0.7" d="M311.325 206.766C311.325 206.766 307.056 174.66 308.327 163.592C309.598 152.524 314.15 157.449 314.15 157.449C314.15 157.449 318.333 152.072 319.579 157.999C319.579 157.999 313.83 164.436 311.325 206.766Z" fill="white"/>
<path opacity="0.2" d="M363.76 207.001C357.443 201.369 356.604 186.67 356.604 186.67C356.987 186.435 359.331 185.159 361.799 183.864C362.527 191.203 363.181 199.053 363.76 207.001Z" fill="black"/>
<path opacity="0.2" d="M332.867 397.77L338.184 351.751L337.16 327.397C337.16 327.397 329.869 369.629 332.867 397.77Z" fill="black"/>
<path opacity="0.2" d="M367.597 279.592C363.624 279.16 360.194 278.748 360.194 278.748L359.442 253.06C360.68 251.827 362.167 251.392 363.6 251.843C364.576 247.739 365.315 243.502 365.808 239.185C366.672 255.846 367.276 270.604 367.597 279.592Z" fill="black"/>
<path d="M368.955 239.166L361.219 258.927L367.339 264.52L374.606 246.721L368.955 239.166Z" fill="#E4897B"/>
<path d="M357.702 154.977C362.909 155.879 385.043 204.195 386.018 218.756C386.992 233.317 373.014 258.456 373.014 258.456L363.686 249.723C363.686 249.723 373.162 226.547 373.655 220.287C374.149 214.027 356.321 188.731 356.321 188.731C354.972 182.903 354.231 176.765 354.124 170.558C353.878 159.922 357.702 154.977 357.702 154.977Z" fill="#206F7E"/>
<path d="M359.429 253.079C359.429 253.079 367.387 255.787 370.595 263.755C370.595 263.755 367.264 280.338 364.883 282.143C362.501 283.948 356.604 283.948 356.604 283.948C356.604 283.948 356.221 265.501 359.429 253.079Z" fill="#206F7E"/>
</g>
<defs>
<filter id="filter0_d_1_191" x="0" y="0" width="624.89" height="687.909" filterUnits="userSpaceOnUse" color-interpolation-filters="sRGB">
<feFlood flood-opacity="0" result="BackgroundImageFix"/>
<feColorMatrix in="SourceAlpha" type="matrix" values="0 0 0 0 0 0 0 0 0 0 0 0 0 0 0 0 0 0 127 0" result="hardAlpha"/>
<feOffset dy="4"/>
<feGaussianBlur stdDeviation="2"/>
<feComposite in2="hardAlpha" operator="out"/>
<feColorMatrix type="matrix" values="0 0 0 0 0 0 0 0 0 0 0 0 0 0 0 0 0 0 0.25 0"/>
<feBlend mode="normal" in2="BackgroundImageFix" result="effect1_dropShadow_1_191"/>
<feBlend mode="normal" in="SourceGraphic" in2="effect1_dropShadow_1_191" result="shape"/>
</filter>
</defs>
</svg>
